<svg width="252" height="253" viewBox="0 0 252 253" fill="none" xmlns="http://www.w3.org/2000/svg">
<path d="M117.632 188.63C116.463 188.46 115.345 188.259 114.289 188.034C114.682 188.172 115.077 188.297 115.477 188.409L115.923 188.517C116.421 188.622 116.936 188.72 117.464 188.81C117.869 188.88 118.282 188.945 118.702 189.005L117.629 188.627L117.632 188.63Z" fill="#222222"/>
<path d="M121.93 189.112C120.664 189.01 119.431 188.879 118.242 188.717C118.575 188.857 118.913 188.979 119.253 189.085C119.751 189.152 120.259 189.26 120.774 189.315C121.517 189.44 122.508 189.562 123.254 189.665C122.803 189.557 122.36 189.37 121.93 189.11V189.112Z" fill="#222222"/>
<path d="M126.525 189.342C125.204 189.315 123.896 189.252 122.617 189.162C123.068 189.465 123.533 189.662 124.008 189.753L125.287 189.858C125.75 189.883 126.22 189.903 126.69 189.915C126.82 189.918 126.95 189.923 127.083 189.925C126.893 189.905 126.705 189.708 126.525 189.34V189.342Z" fill="#222222"/>
<path d="M131.222 189.303C129.886 189.35 128.547 189.365 127.219 189.348C127.326 189.713 127.439 189.911 127.554 189.931C128.212 189.938 128.872 189.936 129.536 189.921L130.469 189.868C130.729 189.803 130.977 189.605 131.219 189.303H131.222Z" fill="#222222"/>
<path d="M135.891 188.997C134.582 189.127 133.254 189.22 131.918 189.28C131.658 189.542 131.39 189.723 131.117 189.815C131.883 189.718 132.836 189.613 133.669 189.525C134.157 189.475 134.622 189.405 135.125 189.337L135.891 188.997Z" fill="#222222"/>
<path d="M102.679 183.163C101.463 182.738 100.37 182.277 99.4219 181.779C99.9122 182.095 100.41 182.4 100.913 182.692C102.664 183.613 105.024 184.797 106.83 185.602C107.358 185.84 107.931 186.068 108.544 186.283C106.49 185.45 104.531 184.404 102.679 183.163Z" fill="#222222"/>
<path d="M107.454 184.511C105.981 184.173 104.602 183.798 103.344 183.385C105.148 184.611 107.059 185.639 109.058 186.455C109.263 186.522 109.473 186.587 109.686 186.652L110.829 187.05C111.437 187.223 112.075 187.385 112.738 187.538C110.879 186.787 109.111 185.772 107.449 184.511H107.454Z" fill="#222222"/>
<path d="M113.026 185.539C111.352 185.294 109.751 185.008 108.242 184.686C109.841 185.931 111.542 186.935 113.331 187.668C114.457 187.91 115.65 188.123 116.901 188.306C115.54 187.648 114.244 186.72 113.028 185.539H113.026Z" fill="#222222"/>
<path d="M119.191 186.229C117.377 186.084 115.61 185.894 113.914 185.664C115.06 186.832 116.281 187.751 117.562 188.399C118.83 188.571 120.146 188.711 121.5 188.819C120.689 188.221 119.916 187.353 119.191 186.227V186.229Z" fill="#222222"/>
<path d="M125.748 186.56C123.857 186.52 121.985 186.433 120.156 186.303C120.804 187.421 121.495 188.284 122.22 188.875C123.584 188.972 124.982 189.037 126.394 189.067C126.166 188.499 125.951 187.659 125.748 186.56Z" fill="#222222"/>
<path d="M132.479 186.512C130.565 186.582 128.649 186.602 126.75 186.577C126.873 187.673 127.003 188.514 127.14 189.079C128.559 189.097 129.987 189.082 131.416 189.029C131.791 188.456 132.147 187.611 132.479 186.51V186.512Z" fill="#222222"/>
<path d="M139.18 186.065C137.306 186.251 135.404 186.386 133.493 186.471C133.078 187.577 132.637 188.425 132.172 189C133.598 188.935 135.019 188.835 136.415 188.697C137.386 188.084 138.312 187.201 139.18 186.065Z" fill="#222222"/>
<path d="M145.57 185.209C144.649 185.369 143.689 185.517 142.695 185.652C141.862 185.767 141.019 185.869 140.171 185.962C139.223 187.108 138.215 188.001 137.156 188.622C137.789 188.552 138.417 188.476 139.04 188.391C139.783 188.289 140.499 188.179 141.184 188.061C142.725 187.373 144.192 186.417 145.57 185.211V185.209Z" fill="#222222"/>
<path d="M151.008 184.028C149.619 184.401 148.096 184.743 146.447 185.049C144.998 186.267 143.457 187.238 141.836 187.938C142.271 187.858 142.694 187.773 143.104 187.686C144.218 187.343 145.699 186.878 146.802 186.502C148.263 185.814 149.667 184.986 151.008 184.025V184.028Z" fill="#222222"/>
<path d="M155.357 182.596C154.293 183.034 153.085 183.446 151.744 183.832C150.493 184.712 149.189 185.483 147.836 186.141C149.077 185.653 150.726 184.985 151.949 184.455L153.793 183.564C154.321 183.254 154.841 182.931 155.354 182.596H155.357Z" fill="#222222"/>
<path d="M155.892 182.36C155.564 182.572 155.234 182.78 154.898 182.983L156.755 181.957C156.48 182.092 156.192 182.227 155.892 182.36Z" fill="#222222"/>
<path d="M96.0616 177.376C94.5304 176.84 93.1543 176.26 91.9609 175.637C93.8774 177.628 95.974 179.415 98.2207 180.976C99.209 181.491 100.347 181.972 101.616 182.417C99.6218 180.966 97.7629 179.277 96.0616 177.378V177.376Z" fill="#222222"/>
<path d="M102.057 179.075C100.2 178.649 98.4665 178.177 96.8828 177.656C98.5416 179.543 100.35 181.211 102.294 182.648C103.605 183.078 105.039 183.468 106.575 183.821C104.951 182.475 103.44 180.886 102.054 179.075H102.057Z" fill="#222222"/>
<path d="M109.074 180.369C106.968 180.061 104.954 179.703 103.055 179.293C104.386 181.092 105.842 182.668 107.403 184.002C108.974 184.339 110.643 184.637 112.387 184.892C111.198 183.626 110.09 182.11 109.074 180.369Z" fill="#222222"/>
<path d="M116.838 181.236C114.556 181.053 112.332 180.816 110.195 180.525C111.151 182.259 112.194 183.765 113.313 185.021C115.082 185.261 116.92 185.457 118.809 185.609C118.101 184.396 117.441 182.932 116.835 181.236H116.838Z" fill="#222222"/>
<path d="M125.085 181.654C122.703 181.602 120.346 181.494 118.047 181.329C118.587 183.02 119.178 184.479 119.811 185.687C121.715 185.822 123.666 185.913 125.638 185.955C125.44 184.767 125.255 183.328 125.087 181.654H125.085Z" fill="#222222"/>
<path d="M133.562 181.592C131.155 181.679 128.741 181.707 126.352 181.674C126.454 183.348 126.567 184.787 126.684 185.973C128.663 185.998 130.66 185.975 132.651 185.905C132.977 184.714 133.282 183.271 133.56 181.592H133.562Z" fill="#222222"/>
<path d="M142.005 181.028C139.648 181.261 137.251 181.431 134.847 181.539C134.502 183.22 134.124 184.666 133.719 185.859C135.71 185.769 137.692 185.629 139.643 185.437C140.491 184.211 141.282 182.735 142.005 181.028Z" fill="#222222"/>
<path d="M150.044 179.954C148.883 180.154 147.677 180.341 146.426 180.512C145.378 180.654 144.317 180.784 143.249 180.902C142.461 182.616 141.598 184.099 140.672 185.333C141.558 185.235 142.433 185.13 143.301 185.01C144.337 184.867 145.335 184.715 146.296 184.547C147.642 183.254 148.896 181.718 150.044 179.951V179.954Z" fill="#222222"/>
<path d="M156.891 178.469C155.142 178.939 153.226 179.369 151.149 179.755C149.943 181.529 148.625 183.08 147.211 184.383C148.93 184.065 150.516 183.708 151.962 183.32C153.731 181.936 155.38 180.313 156.891 178.469Z" fill="#222222"/>
<path d="M162.354 176.66C161.013 177.211 159.494 177.731 157.805 178.214C156.246 180.07 154.545 181.709 152.719 183.108C154.117 182.707 155.373 182.277 156.482 181.822C158.588 180.325 160.552 178.597 162.351 176.66H162.354Z" fill="#222222"/>
<path d="M166.319 174.605C165.414 175.216 164.318 175.804 163.042 176.367C161.208 178.321 159.204 180.065 157.055 181.581C157.683 181.306 158.258 181.02 158.781 180.728C163.007 177.67 163.087 177.61 165.181 175.729C165.566 175.361 165.946 174.988 166.319 174.608V174.605Z" fill="#222222"/>
<path d="M90.7704 174.964C89.8772 174.416 89.1542 173.855 88.5938 173.29C92.3491 176.828 92.4967 176.965 96.2546 179.72C94.3031 178.291 92.4692 176.703 90.7729 174.964H90.7704Z" fill="#222222"/>
<path d="M90.7527 169.82C88.9713 169.197 87.3676 168.519 85.9766 167.794C87.4452 170.236 89.1165 172.5 90.9729 174.564C92.2013 175.205 93.6149 175.802 95.1861 176.35C93.5398 174.376 92.0562 172.192 90.7552 169.818L90.7527 169.82Z" fill="#222222"/>
<path d="M97.7302 171.797C95.5686 171.301 93.5495 170.751 91.7031 170.146C92.9716 172.507 94.4177 174.679 96.0214 176.638C97.6477 177.171 99.429 177.659 101.335 178.094C99.9969 176.205 98.7885 174.101 97.7277 171.797H97.7302Z" fill="#222222"/>
<path d="M105.903 173.306C103.449 172.948 101.102 172.53 98.8906 172.055C99.9114 174.349 101.072 176.446 102.361 178.322C104.31 178.742 106.381 179.11 108.545 179.425C107.565 177.604 106.679 175.557 105.903 173.306Z" fill="#222222"/>
<path d="M114.949 174.316C112.292 174.104 109.7 173.826 107.211 173.488C107.941 175.732 108.775 177.774 109.7 179.588C111.897 179.886 114.181 180.128 116.526 180.318C115.94 178.54 115.412 176.533 114.949 174.316Z" fill="white"/>
<path d="M124.568 174.802C121.794 174.742 119.049 174.614 116.367 174.424C116.78 176.638 117.253 178.64 117.776 180.411C120.14 180.578 122.559 180.691 125.009 180.744C124.846 178.987 124.699 177.001 124.568 174.799V174.802Z" fill="#222222"/>
<path d="M134.44 174.73C131.636 174.833 128.826 174.863 126.039 174.828C126.117 177.027 126.207 179.014 126.307 180.768C128.764 180.8 131.243 180.773 133.715 180.682C133.985 178.924 134.228 176.932 134.44 174.73Z" fill="#222222"/>
<path d="M144.255 174.076C141.508 174.346 138.718 174.544 135.916 174.672C135.651 176.876 135.351 178.87 135.016 180.631C137.488 180.519 139.947 180.346 142.371 180.106C143.072 178.317 143.702 176.3 144.255 174.076Z" fill="#222222"/>
<path d="M153.634 172.82C152.283 173.053 150.877 173.271 149.418 173.471C148.198 173.638 146.962 173.789 145.718 173.924C145.115 176.153 144.427 178.177 143.664 179.971C144.762 179.851 145.851 179.718 146.929 179.57C148.215 179.395 149.456 179.203 150.647 178.997C151.758 177.154 152.758 175.09 153.637 172.82H153.634Z" fill="#222222"/>
<path d="M161.611 171.092C159.575 171.64 157.34 172.14 154.924 172.59C154 174.867 152.947 176.941 151.781 178.795C153.915 178.4 155.884 177.957 157.681 177.474C159.139 175.555 160.458 173.421 161.611 171.092Z" fill="#222222"/>
<path d="M167.972 168.986C166.411 169.627 164.642 170.235 162.673 170.798C161.482 173.137 160.123 175.281 158.617 177.215C160.354 176.72 161.912 176.184 163.291 175.619C165.03 173.607 166.598 171.391 167.972 168.989V168.986Z" fill="#222222"/>
<path d="M172.594 166.594C171.538 167.304 170.262 167.992 168.776 168.645C167.373 171.06 165.771 173.289 164 175.315C165.311 174.74 166.437 174.134 167.368 173.506C169.309 171.39 171.06 169.078 172.597 166.594H172.594Z" fill="#222222"/>
<path d="M173.127 166.216C171.574 168.713 169.8 171.039 167.836 173.173C167.838 173.173 167.843 173.168 167.846 173.166C171.474 169.185 171.689 168.945 173.743 166.101L174.551 164.992C174.131 165.367 173.508 165.8 173.127 166.216Z" fill="#222222"/>
<path d="M84.5837 167.008C83.3628 166.257 82.4146 165.492 81.7266 164.719C83.1727 167 84.7964 169.15 86.5853 171.151L87.3208 171.959C87.9188 172.605 88.7244 173.245 89.7427 173.871C87.8262 171.772 86.0999 169.477 84.5837 167.008Z" fill="#222222"/>
<path d="M86.949 160.698C84.985 160.01 83.2212 159.267 81.6875 158.467C82.6382 161.299 83.8241 163.978 85.2177 166.483C86.6338 167.223 88.265 167.911 90.0814 168.547C88.843 166.108 87.7921 163.486 86.949 160.698Z" fill="#222222"/>
<path d="M94.6297 162.876C92.2479 162.33 90.0262 161.722 87.9922 161.057C88.8153 163.836 89.8386 166.451 91.0445 168.878C92.9234 169.493 94.9775 170.056 97.1792 170.559C96.1709 168.185 95.3153 165.618 94.6297 162.876Z" fill="#222222"/>
<path d="M103.645 164.537C100.943 164.141 98.3562 163.681 95.9219 163.158C96.5824 165.895 97.4055 168.455 98.3762 170.819C100.628 171.302 103.017 171.73 105.514 172.092C104.776 169.768 104.148 167.244 103.645 164.534V164.537Z" fill="#222222"/>
<path d="M113.592 165.653C110.665 165.418 107.812 165.112 105.07 164.742C105.543 167.447 106.134 169.966 106.829 172.285C109.364 172.628 112.001 172.911 114.705 173.129C114.265 170.839 113.892 168.34 113.592 165.655V165.653Z" fill="#222222"/>
<path d="M124.188 166.185C121.131 166.12 118.111 165.98 115.156 165.77C115.424 168.452 115.759 170.946 116.152 173.233C118.882 173.428 121.674 173.555 124.498 173.618C124.376 171.344 124.271 168.859 124.186 166.185H124.188Z" fill="#222222"/>
<path d="M135.057 166.107C131.967 166.22 128.872 166.253 125.805 166.212C125.855 168.887 125.92 171.369 125.995 173.643C128.829 173.681 131.692 173.648 134.546 173.546C134.749 171.269 134.919 168.784 135.057 166.107Z" fill="#222222"/>
<path d="M145.882 165.385C142.858 165.682 139.785 165.9 136.698 166.04C136.528 168.717 136.315 171.204 136.062 173.483C138.915 173.356 141.754 173.153 144.551 172.878C145.077 170.579 145.525 168.077 145.882 165.385Z" fill="#222222"/>
<path d="M156.191 164.004C154.703 164.262 153.154 164.499 151.55 164.719C150.204 164.902 148.846 165.07 147.475 165.22C147.084 167.914 146.596 170.421 146.023 172.725C147.289 172.588 148.548 172.433 149.791 172.263C151.275 172.06 152.706 171.84 154.082 171.602C154.915 169.263 155.626 166.723 156.194 164.004H156.191Z" fill="white"/>
<path d="M164.991 162.1C162.747 162.703 160.287 163.255 157.625 163.748C157.027 166.473 156.282 169.017 155.406 171.367C157.868 170.911 160.14 170.398 162.214 169.843C163.312 167.446 164.243 164.859 164.991 162.102V162.1Z" fill="#222222"/>
<path d="M171.991 159.78C170.272 160.485 168.323 161.153 166.156 161.774C165.383 164.538 164.422 167.133 163.289 169.54C165.291 168.967 167.092 168.349 168.681 167.696C169.987 165.229 171.098 162.584 171.988 159.777L171.991 159.78Z" fill="#222222"/>
<path d="M177.078 157.143C175.917 157.926 174.511 158.681 172.875 159.402C171.967 162.214 170.834 164.871 169.5 167.348C171.014 166.682 172.312 165.984 173.385 165.261C174.844 162.717 176.085 160.002 177.078 157.145V157.143Z" fill="#222222"/>
<path d="M180.152 154.283C179.582 155.116 178.751 155.934 177.675 156.725C176.67 159.592 175.414 162.317 173.938 164.874C174.503 164.403 175.246 163.76 175.751 163.23L177.22 160.823L177.565 160.19C178.549 158.291 179.412 156.32 180.15 154.283H180.152Z" fill="#222222"/>
<path d="M76.6314 154.629C76.1485 154.003 75.8208 153.373 75.6406 152.742C76.4638 154.999 77.4795 157.313 78.5028 159.337L79.8288 161.746C80.0415 162.139 80.2416 162.54 80.5444 162.935C78.9982 160.315 77.6847 157.538 76.6314 154.626V154.629Z" fill="#222222"/>
<path d="M80.1474 157.601C78.8039 156.775 77.7581 155.932 77 155.079C78.0458 157.981 79.3518 160.746 80.8855 163.353C81.586 164.141 82.5517 164.919 83.7927 165.682C82.3516 163.15 81.1281 160.448 80.1449 157.599L80.1474 157.601Z" fill="#222222"/>
<path d="M84.8548 150.22C82.7933 149.5 80.9394 148.717 79.3281 147.876C79.6959 151.036 80.3264 154.068 81.1945 156.953C82.7432 157.761 84.5271 158.514 86.5086 159.207C85.738 156.362 85.1801 153.36 84.8523 150.218L84.8548 150.22Z" fill="#222222"/>
<path d="M92.9469 152.507C90.445 151.934 88.1107 151.296 85.9766 150.596C86.2943 153.736 86.8397 156.733 87.5903 159.57C89.6444 160.243 91.8911 160.856 94.2954 161.409C93.6674 158.607 93.2121 155.632 92.9469 152.507Z" fill="white"/>
<path d="M102.392 154.251C99.5553 153.836 96.8382 153.353 94.2812 152.803C94.5364 155.925 94.9743 158.895 95.5797 161.692C98.0391 162.22 100.654 162.685 103.383 163.086C102.923 160.313 102.59 157.361 102.395 154.251H102.392Z" fill="#222222"/>
<path d="M112.863 155.423C109.789 155.175 106.794 154.855 103.914 154.467C104.097 157.577 104.412 160.524 104.845 163.293C107.614 163.669 110.497 163.976 113.454 164.214C113.179 161.462 112.981 158.527 112.863 155.425V155.423Z" fill="#222222"/>
<path d="M123.969 155.983C120.759 155.913 117.584 155.768 114.484 155.545C114.589 158.647 114.767 161.582 115.012 164.329C117.995 164.542 121.049 164.682 124.137 164.749C124.059 162.007 124.004 159.08 123.972 155.98L123.969 155.983Z" fill="#222222"/>
<path d="M135.397 155.9C132.152 156.018 128.902 156.053 125.68 156.013C125.7 159.11 125.735 162.04 125.78 164.78C128.88 164.82 132.007 164.785 135.127 164.672C135.252 161.93 135.342 159 135.395 155.9H135.397Z" fill="#222222"/>
<path d="M146.761 155.141C143.584 155.454 140.356 155.684 137.116 155.829C137.051 158.929 136.939 161.859 136.781 164.603C139.899 164.463 143.003 164.243 146.058 163.94C146.386 161.183 146.621 158.244 146.759 155.139L146.761 155.141Z" fill="#222222"/>
<path d="M157.602 153.69C156.039 153.96 154.412 154.21 152.726 154.441C151.312 154.633 149.884 154.808 148.445 154.966C148.295 158.071 148.037 161.013 147.68 163.773C149.066 163.623 150.439 163.452 151.798 163.267C153.419 163.045 154.985 162.804 156.489 162.544C157.007 159.762 157.385 156.805 157.602 153.688V153.69Z" fill="#222222"/>
<path d="M166.829 151.691C164.472 152.324 161.89 152.905 159.093 153.425C158.863 156.543 158.467 159.505 157.922 162.292C160.614 161.794 163.098 161.234 165.365 160.626C166.048 157.809 166.543 154.824 166.831 151.694L166.829 151.691Z" fill="#222222"/>
<path d="M174.18 149.256C172.373 149.999 170.327 150.699 168.053 151.35C167.755 154.482 167.245 157.472 166.539 160.294C168.728 159.669 170.697 158.993 172.434 158.28C173.247 155.421 173.837 152.403 174.18 149.256Z" fill="#222222"/>
<path d="M179.525 146.488C178.304 147.311 176.828 148.105 175.109 148.86C174.759 152.012 174.156 155.032 173.328 157.899C174.982 157.171 176.403 156.408 177.576 155.618C178.485 152.708 179.143 149.656 179.525 146.488Z" fill="white"/>
<path d="M182.753 143.482C182.153 144.358 181.282 145.216 180.154 146.049C179.766 149.222 179.098 152.279 178.18 155.196C179.266 154.396 180.104 153.57 180.682 152.729C181.647 149.767 182.345 146.677 182.753 143.485V143.482Z" fill="#222222"/>
<path d="M74.0297 143.845C73.3391 142.946 72.9488 142.043 72.8438 141.143C72.9939 142.291 73.179 143.427 73.4042 144.55C73.797 146.254 74.3074 148.528 74.7927 150.207C74.8903 150.53 74.9929 150.85 75.098 151.168C75.2806 151.803 75.6134 152.441 76.0987 153.074C75.1355 150.117 74.4375 147.032 74.0297 143.842V143.845Z" fill="#222222"/>
<path d="M77.7269 146.967C76.3158 146.099 75.2175 145.213 74.4219 144.32C74.8272 147.505 75.5202 150.585 76.4759 153.532C77.2415 154.393 78.2973 155.246 79.6559 156.079C78.7602 153.177 78.1072 150.132 77.7269 146.967Z" fill="#222222"/>
<path d="M84.6947 138.692C82.6256 137.969 80.7642 137.183 79.148 136.34C79.0129 137.971 78.9453 139.615 78.9453 141.266C78.9453 142.937 79.0179 144.581 79.1555 146.192C80.7717 147.035 82.6306 147.821 84.6997 148.544C84.5771 146.938 84.5146 145.299 84.5146 143.628C84.5146 141.979 84.5746 140.333 84.6947 138.694V138.692Z" fill="#222222"/>
<path d="M92.8111 140.986C90.3017 140.41 87.9574 139.77 85.8158 139.069C85.7007 140.708 85.6406 142.357 85.6406 144.006C85.6406 145.677 85.7032 147.316 85.8233 148.922C87.9649 149.625 90.3092 150.265 92.8186 150.838C92.7185 149.24 92.666 147.603 92.666 145.93C92.666 144.281 92.716 142.63 92.8111 140.986Z" fill="#222222"/>
<path d="M102.289 142.737C99.4419 142.321 96.7149 141.836 94.1479 141.283C94.0553 142.929 94.0078 144.578 94.0078 146.229C94.0078 147.901 94.0578 149.537 94.1529 151.136C96.7199 151.686 99.4445 152.174 102.294 152.589C102.222 150.996 102.184 149.359 102.182 147.688C102.182 146.039 102.217 144.386 102.287 142.737H102.289Z" fill="#222222"/>
<path d="M112.793 143.913C109.708 143.665 106.701 143.345 103.811 142.952C103.743 144.603 103.711 146.255 103.711 147.906C103.711 149.577 103.746 151.211 103.816 152.805C106.706 153.195 109.713 153.518 112.798 153.765C112.753 152.174 112.73 150.54 112.73 148.869C112.73 147.22 112.75 145.567 112.793 143.913Z" fill="#222222"/>
<path d="M123.958 144.477C120.735 144.407 117.55 144.259 114.438 144.039C114.401 145.693 114.381 147.347 114.383 148.995C114.383 150.667 114.403 152.3 114.443 153.889C117.555 154.112 120.74 154.257 123.96 154.327C123.948 152.738 123.94 151.104 123.94 149.433C123.94 147.784 123.945 146.128 123.958 144.474V144.477Z" fill="#222222"/>
<path d="M135.419 144.394C132.164 144.511 128.901 144.549 125.666 144.506C125.659 146.16 125.656 147.816 125.656 149.465C125.656 151.136 125.661 152.767 125.669 154.359C128.901 154.401 132.164 154.364 135.419 154.246C135.439 152.657 135.449 151.024 135.449 149.352C135.449 147.704 135.439 146.047 135.419 144.394Z" fill="#222222"/>
<path d="M146.82 143.63C143.631 143.945 140.393 144.175 137.141 144.32C137.166 145.974 137.178 147.628 137.178 149.279C137.178 150.95 137.166 152.582 137.141 154.173C140.393 154.025 143.631 153.798 146.82 153.482C146.873 151.891 146.898 150.257 146.898 148.586C146.898 146.937 146.871 145.284 146.82 143.63Z" fill="#222222"/>
<path d="M157.689 142.174C156.121 142.445 154.49 142.697 152.796 142.927C151.377 143.12 149.944 143.298 148.5 143.455C148.555 145.107 148.585 146.76 148.585 148.409C148.585 150.08 148.558 151.714 148.5 153.305C149.946 153.148 151.377 152.973 152.796 152.777C154.49 152.547 156.121 152.295 157.689 152.024C157.772 150.428 157.815 148.794 157.812 147.121C157.812 145.472 157.77 143.821 157.689 142.172V142.174Z" fill="#222222"/>
<path d="M166.967 140.168C164.602 140.803 162.01 141.386 159.203 141.907C159.288 143.556 159.331 145.204 159.333 146.856C159.333 148.527 159.291 150.163 159.203 151.759C162.01 151.239 164.602 150.656 166.967 150.02C167.074 148.419 167.129 146.78 167.129 145.109C167.129 143.46 167.074 141.812 166.967 140.168Z" fill="#222222"/>
<path d="M174.345 137.723C172.534 138.468 170.48 139.171 168.195 139.824C168.305 141.465 168.36 143.114 168.363 144.763C168.363 146.434 168.305 148.073 168.195 149.677C170.48 149.024 172.534 148.318 174.345 147.575C174.475 145.966 174.54 144.325 174.54 142.654C174.54 141.005 174.475 139.359 174.348 137.723H174.345Z" fill="#222222"/>
<path d="M179.715 134.943C178.491 135.769 177.008 136.565 175.284 137.325C175.414 138.961 175.479 140.605 175.479 142.254C175.479 143.925 175.411 145.566 175.281 147.178C177.008 146.42 178.489 145.621 179.712 144.798C179.857 143.182 179.93 141.536 179.93 139.865C179.93 138.216 179.857 136.575 179.715 134.946V134.943Z" fill="#222222"/>
<path d="M182.948 131.932C182.345 132.81 181.472 133.67 180.338 134.506C180.481 136.132 180.554 137.774 180.556 139.425C180.556 141.096 180.481 142.742 180.336 144.361C181.469 143.525 182.342 142.665 182.945 141.787C183.098 140.163 183.176 138.512 183.176 136.84C183.176 135.192 183.098 133.553 182.948 131.934V131.932Z" fill="#222222"/>
<path d="M183.927 129.232C183.892 129.983 183.662 130.729 183.239 131.464C183.389 133.083 183.467 134.719 183.467 136.37C183.467 138.042 183.389 139.693 183.234 141.319C183.402 141.026 183.54 140.731 183.647 140.433C183.85 138.547 184.088 136.025 184.155 134.129C184.155 132.48 184.078 130.846 183.922 129.232H183.927Z" fill="#222222"/>
<path d="M73.8351 132.295C73.1421 131.394 72.7493 130.488 72.6442 129.585C72.4916 131.199 72.4141 132.832 72.4141 134.481C72.4141 136.152 72.4941 137.806 72.6517 139.437C72.7568 140.341 73.1496 141.246 73.8426 142.147C73.69 140.523 73.61 138.874 73.61 137.203C73.61 135.554 73.685 133.916 73.8351 132.295Z" fill="#222222"/>
<path d="M77.548 135.427C76.1319 134.556 75.0311 133.668 74.2305 132.77C74.0829 134.393 74.0078 136.029 74.0078 137.681C74.0078 139.352 74.0854 141.001 74.238 142.622C75.0361 143.52 76.1394 144.408 77.5555 145.279C77.4129 143.663 77.3403 142.019 77.3378 140.348C77.3378 138.699 77.4079 137.055 77.5455 135.427H77.548Z" fill="#222222"/>
<path d="M86.4908 127.221C84.5068 126.528 82.7229 125.774 81.1742 124.964C80.3086 128.109 79.6831 131.331 79.3203 134.604C80.929 135.444 82.7855 136.227 84.847 136.948C85.1698 133.66 85.7252 130.405 86.4908 127.221Z" fill="#222222"/>
<path d="M94.2645 129.42C91.8576 128.87 89.6109 128.254 87.5568 127.581C86.8088 130.773 86.2684 134.031 85.9531 137.323C88.0872 138.024 90.424 138.662 92.9259 139.235C93.1886 135.93 93.639 132.647 94.2645 129.42Z" fill="#222222"/>
<path d="M103.36 131.099C100.628 130.701 98.016 130.233 95.5541 129.705C94.9536 132.938 94.5183 136.222 94.2656 139.53C96.8226 140.08 99.5396 140.563 102.379 140.979C102.572 137.661 102.902 134.356 103.36 131.099Z" fill="#222222"/>
<path d="M113.425 132.224C110.468 131.987 107.583 131.679 104.814 131.304C104.383 134.564 104.073 137.871 103.891 141.191C106.77 141.581 109.768 141.902 112.842 142.149C112.958 138.822 113.153 135.502 113.425 132.224Z" fill="#222222"/>
<path d="M124.132 132.764C121.042 132.697 117.99 132.556 115.005 132.344C114.762 135.624 114.587 138.946 114.484 142.274C117.587 142.494 120.762 142.642 123.972 142.712C124.002 139.379 124.057 136.054 124.132 132.767V132.764Z" fill="white"/>
<path d="M135.124 132.688C132.002 132.8 128.875 132.835 125.775 132.795C125.73 136.083 125.697 139.41 125.68 142.743C128.902 142.785 132.152 142.748 135.397 142.63C135.342 139.3 135.252 135.972 135.124 132.688Z" fill="#222222"/>
<path d="M146.055 131.957C142.998 132.26 139.893 132.48 136.773 132.62C136.931 135.905 137.044 139.23 137.111 142.56C140.354 142.412 143.581 142.185 146.759 141.872C146.621 138.547 146.383 135.232 146.055 131.957Z" fill="#222222"/>
<path d="M156.476 130.561C154.972 130.821 153.408 131.061 151.785 131.284C150.426 131.469 149.05 131.636 147.664 131.789C148.022 135.059 148.28 138.374 148.432 141.696C149.873 141.539 151.302 141.364 152.715 141.171C154.402 140.941 156.028 140.691 157.592 140.42C157.371 137.105 156.996 133.808 156.478 130.561H156.476Z" fill="#222222"/>
<path d="M165.36 128.635C163.093 129.243 160.606 129.803 157.914 130.301C158.459 133.543 158.855 136.838 159.085 140.151C161.882 139.633 164.467 139.05 166.823 138.417C166.536 135.117 166.04 131.847 165.357 128.635H165.36Z" fill="#222222"/>
<path d="M172.444 126.292C170.708 127.005 168.736 127.681 166.547 128.309C167.25 131.513 167.76 134.781 168.058 138.078C170.335 137.428 172.381 136.725 174.188 135.984C173.845 132.702 173.257 129.462 172.444 126.294V126.292Z" fill="#222222"/>
<path d="M177.6 123.627C176.426 124.418 175.005 125.183 173.352 125.909C174.18 129.071 174.78 132.306 175.13 135.583C176.849 134.828 178.328 134.032 179.546 133.212C179.163 129.952 178.505 126.747 177.6 123.627Z" fill="#222222"/>
<path d="M180.697 120.738C180.119 121.581 179.281 122.407 178.195 123.208C179.114 126.32 179.779 129.52 180.167 132.777C181.295 131.944 182.168 131.086 182.766 130.21C182.361 126.973 181.66 123.806 180.697 120.738Z" fill="#222222"/>
<path d="M180.969 120.29C181.937 123.35 182.64 126.51 183.048 129.745C183.468 129.012 183.698 128.268 183.733 127.52C183.361 124.626 182.75 121.804 181.917 119.069L181.632 117.891C181.647 118.699 181.422 119.502 180.969 120.292V120.29Z" fill="#222222"/>
<path d="M74.9063 118.028C74.9063 117.51 75.0014 116.992 75.1915 116.479C74.5835 118.348 74.0131 120.327 73.6428 122.224L72.9448 126.282C72.8998 126.697 72.8572 127.002 72.8047 127.393C73.3001 124.223 73.9255 121.045 74.9063 118.028Z" fill="#222222"/>
<path d="M76.0706 121.086C75.4076 120.223 75.0298 119.352 74.9297 118.486C73.9515 121.511 73.2409 124.648 72.8281 127.868C72.9332 128.769 73.3235 129.672 74.014 130.57C74.4168 127.331 75.1099 124.158 76.0706 121.086Z" fill="#222222"/>
<path d="M79.6277 124.092C78.2692 123.256 77.2134 122.406 76.4478 121.545C75.4971 124.627 74.8066 127.805 74.4062 131.05C75.2019 131.945 76.3002 132.831 77.7113 133.699C78.0866 130.434 78.7345 127.224 79.6252 124.094L79.6277 124.092Z" fill="#222222"/>
<path d="M90.0426 116.302C88.2263 115.667 86.595 114.979 85.1789 114.238C83.7854 117.158 82.6045 120.19 81.6562 123.308C83.1899 124.108 84.9563 124.854 86.9178 125.539C87.7584 122.377 88.8067 119.287 90.0426 116.302Z" fill="#222222"/>
<path d="M97.1586 118.316C94.9569 117.811 92.9003 117.25 91.0214 116.635C89.818 119.632 88.7972 122.729 87.9766 125.899C90.0081 126.565 92.2348 127.173 94.6166 127.718C95.2996 124.513 96.1553 121.368 97.1586 118.316Z" fill="#222222"/>
<path d="M105.48 119.852C102.981 119.487 100.589 119.062 98.3375 118.576C97.3718 121.636 96.5486 124.788 95.8906 127.998C98.3275 128.521 100.914 128.982 103.617 129.377C104.117 126.137 104.742 122.949 105.478 119.85L105.48 119.852Z" fill="white"/>
<path d="M114.69 120.883C111.982 120.666 109.345 120.385 106.809 120.04C106.115 123.147 105.528 126.34 105.055 129.582C107.797 129.953 110.651 130.258 113.579 130.493C113.876 127.23 114.249 124.016 114.687 120.881L114.69 120.883Z" fill="#222222"/>
<path d="M124.475 121.376C121.648 121.316 118.856 121.186 116.124 120.991C115.731 124.129 115.401 127.346 115.133 130.611C118.088 130.821 121.11 130.961 124.167 131.026C124.25 127.754 124.352 124.524 124.475 121.374V121.376Z" fill="#222222"/>
<path d="M134.544 121.303C131.687 121.405 128.824 121.438 125.99 121.4C125.917 124.55 125.855 127.78 125.805 131.055C128.872 131.095 131.969 131.06 135.059 130.95C134.922 127.678 134.746 124.453 134.544 121.303Z" fill="#222222"/>
<path d="M144.531 120.636C141.733 120.911 138.891 121.114 136.039 121.241C136.292 124.386 136.504 127.611 136.677 130.883C139.764 130.743 142.837 130.526 145.864 130.228C145.504 126.971 145.058 123.763 144.531 120.636Z" fill="#222222"/>
<path d="M154.079 119.36C152.703 119.598 151.272 119.818 149.786 120.021C148.543 120.191 147.284 120.344 146.016 120.484C146.591 123.606 147.079 126.808 147.469 130.063C148.84 129.913 150.201 129.748 151.547 129.563C153.154 129.343 154.702 129.105 156.191 128.848C155.623 125.618 154.912 122.445 154.077 119.36H154.079Z" fill="#222222"/>
<path d="M162.216 117.596C160.142 118.154 157.868 118.664 155.406 119.122C156.284 122.199 157.03 125.367 157.628 128.589C160.292 128.096 162.752 127.541 164.996 126.938C164.248 123.748 163.315 120.623 162.216 117.596Z" fill="white"/>
<path d="M168.683 115.455C167.094 116.108 165.291 116.726 163.289 117.299C164.422 120.316 165.383 123.434 166.156 126.619C168.323 125.998 170.274 125.33 171.993 124.625C171.103 121.482 169.992 118.415 168.686 115.458L168.683 115.455Z" fill="#222222"/>
<path d="M173.388 113.015C172.315 113.738 171.014 114.438 169.5 115.104C170.834 118.051 171.967 121.108 172.875 124.243C174.514 123.523 175.92 122.767 177.081 121.984C176.088 118.894 174.847 115.894 173.388 113.015Z" fill="#222222"/>
<path d="M176.227 110.373C175.699 111.144 174.931 111.899 173.938 112.632C175.414 115.499 176.67 118.489 177.675 121.569C178.751 120.776 179.579 119.958 180.152 119.125C179.096 116.095 177.778 113.168 176.227 110.373Z" fill="#222222"/>
<path d="M177.093 107.607C177.14 108.401 176.938 109.186 176.492 109.962C178.051 112.744 179.377 115.659 180.44 118.681C180.921 117.843 181.141 116.99 181.088 116.134C180.012 113.164 178.671 110.312 177.093 107.607Z" fill="#222222"/>
<path d="M176.945 106.766C176.985 106.908 177.018 107.048 177.043 107.191C178.514 109.7 179.777 112.34 180.813 115.084L180.088 113.063C179.182 110.886 178.131 108.785 176.945 106.766Z" fill="#222222"/>
<path d="M79.4384 107.894C79.626 106.508 79.6335 106.453 80.1314 105.6C78.9881 107.709 77.5545 110.568 76.5662 112.753C76.271 113.463 75.9908 114.181 75.7281 114.909C75.5379 115.417 75.4429 115.93 75.4454 116.443C76.5187 113.466 77.8597 110.608 79.4384 107.894Z" fill="#222222"/>
<path d="M80.5182 110.69C79.9102 109.9 79.565 109.104 79.4749 108.313C77.8987 111.041 76.5577 113.913 75.4844 116.897C75.5845 117.756 75.9572 118.616 76.6152 119.469C77.666 116.432 78.977 113.495 80.5207 110.69H80.5182Z" fill="#222222"/>
<path d="M83.7617 113.439C82.5183 112.676 81.5526 111.896 80.852 111.107C79.3209 113.925 78.0199 116.872 76.9766 119.919C77.7346 120.77 78.7804 121.615 80.124 122.441C81.1022 119.344 82.3231 116.331 83.7617 113.439Z" fill="#222222"/>
<path d="M95.1445 106.242C93.5708 105.692 92.1572 105.094 90.9288 104.453C89.0749 107.065 87.4036 109.825 85.9375 112.704C87.3286 113.432 88.9323 114.108 90.7161 114.731C92.0171 111.781 93.4983 108.942 95.142 106.242H95.1445Z" fill="#222222"/>
<path d="M101.304 107.986C99.3953 107.548 97.6139 107.063 95.9852 106.527C94.3839 109.242 92.9378 112.094 91.6719 115.056C93.5183 115.662 95.5373 116.212 97.7015 116.71C98.7598 113.693 99.9657 110.776 101.304 107.986Z" fill="#222222"/>
<path d="M108.514 109.317C106.35 109.002 104.276 108.631 102.325 108.211C101.039 111.011 99.8777 113.938 98.8594 116.965C101.071 117.44 103.42 117.858 105.875 118.218C106.65 115.149 107.533 112.171 108.514 109.317Z" fill="#222222"/>
<path d="M116.5 110.211C114.153 110.023 111.869 109.778 109.672 109.48C108.749 112.343 107.918 115.327 107.188 118.402C109.679 118.74 112.269 119.015 114.928 119.23C115.389 116.125 115.917 113.108 116.5 110.211Z" fill="#222222"/>
<path d="M124.983 110.637C122.533 110.585 120.112 110.472 117.747 110.305C117.227 113.207 116.757 116.229 116.344 119.337C119.026 119.527 121.77 119.654 124.547 119.714C124.675 116.592 124.823 113.555 124.985 110.637H124.983Z" fill="#222222"/>
<path d="M133.699 110.575C131.225 110.665 128.743 110.692 126.286 110.66C126.189 113.58 126.101 116.617 126.023 119.739C128.811 119.777 131.623 119.744 134.427 119.642C134.212 116.522 133.969 113.489 133.699 110.572V110.575Z" fill="#222222"/>
<path d="M142.366 109.998C139.942 110.238 137.48 110.411 135.008 110.523C135.343 113.436 135.646 116.468 135.911 119.585C138.713 119.458 141.505 119.26 144.255 118.99C143.699 115.892 143.069 112.885 142.368 109.998H142.366Z" fill="white"/>
<path d="M150.628 108.89C149.435 109.095 148.197 109.287 146.908 109.463C145.83 109.61 144.741 109.743 143.641 109.863C144.404 112.743 145.094 115.745 145.7 118.837C146.946 118.702 148.182 118.549 149.403 118.384C150.861 118.184 152.267 117.969 153.621 117.734C152.743 114.682 151.739 111.722 150.628 108.89Z" fill="#222222"/>
<path d="M157.683 107.363C155.884 107.846 153.915 108.289 151.781 108.684C152.95 111.506 154.003 114.456 154.926 117.501C157.345 117.053 159.58 116.55 161.619 116.002C160.463 113.01 159.144 110.118 157.683 107.363Z" fill="#222222"/>
<path d="M163.293 105.507C161.915 106.072 160.354 106.608 158.617 107.106C160.126 109.85 161.484 112.727 162.678 115.71C164.647 115.147 166.416 114.539 167.979 113.898C166.603 110.978 165.035 108.171 163.293 105.507Z" fill="#222222"/>
<path d="M167.37 103.396C166.439 104.023 165.314 104.629 164 105.204C165.774 107.854 167.375 110.646 168.781 113.556C170.27 112.903 171.546 112.215 172.602 111.504C171.065 108.667 169.314 105.955 167.37 103.396Z" fill="#222222"/>
<path d="M169.82 101.104C169.362 101.772 168.697 102.428 167.836 103.061C169.802 105.602 171.574 108.302 173.13 111.124C174.106 110.404 174.859 109.661 175.379 108.905C173.745 106.158 171.884 103.548 169.82 101.102V101.104Z" fill="#222222"/>
<path d="M170.575 98.707C170.618 99.3925 170.44 100.076 170.055 100.749C172.129 103.175 174.003 105.77 175.644 108.504C176.079 107.744 176.279 106.968 176.232 106.19C174.571 103.538 172.674 101.034 170.573 98.707H170.575Z" fill="#222222"/>
<path d="M170.535 98.3438C172.634 100.653 174.528 103.14 176.187 105.777L176.092 105.359C175.897 105.049 175.697 104.741 175.494 104.436C172.442 99.8674 172.324 99.6898 170.062 97.0703C170.305 97.4931 170.463 97.9185 170.535 98.3438Z" fill="#222222"/>
<path d="M85.9513 98.9545C85.9488 98.269 86.1614 97.5885 86.5842 96.918C84.5152 99.1547 82.6487 101.579 81.0125 104.161C80.5346 104.919 80.2919 105.692 80.297 106.47C81.9582 103.808 83.8522 101.294 85.9538 98.9545H85.9513Z" fill="#222222"/>
<path d="M86.8856 101.378C86.3577 100.692 86.06 100.004 85.9799 99.3164C83.8808 101.673 81.9869 104.203 80.3281 106.88C80.4182 107.658 80.756 108.441 81.3539 109.216C82.9776 106.459 84.8316 103.837 86.8856 101.378Z" fill="#222222"/>
<path d="M89.7011 103.761C88.6253 103.098 87.7871 102.423 87.1792 101.742C85.1401 104.219 83.3012 106.859 81.6875 109.631C82.3755 110.404 83.3263 111.172 84.5447 111.92C86.0583 109.068 87.7846 106.338 89.6986 103.761H89.7011Z" fill="#222222"/>
<path d="M101.582 97.3405C100.314 96.8977 99.1752 96.4173 98.1869 95.8994C95.9402 98.1211 93.8461 100.525 91.9297 103.085C93.1256 103.708 94.5016 104.291 96.0328 104.826C97.7341 102.177 99.5905 99.6698 101.585 97.343L101.582 97.3405Z" fill="#222222"/>
<path d="M106.544 98.7457C105.008 98.3929 103.572 98.0026 102.261 97.5723C100.319 99.919 98.5078 102.441 96.8516 105.105C98.4353 105.626 100.172 106.099 102.028 106.524C103.412 103.784 104.923 101.182 106.546 98.7482L106.544 98.7457Z" fill="#222222"/>
<path d="M112.356 99.8204C110.612 99.5652 108.943 99.2674 107.369 98.9297C105.808 101.377 104.354 103.994 103.023 106.746C104.922 107.153 106.939 107.514 109.048 107.821C110.061 105.014 111.17 102.335 112.358 99.8204H112.356Z" fill="#222222"/>
<path d="M118.788 100.538C116.899 100.386 115.058 100.19 113.287 99.9502C112.168 102.475 111.125 105.162 110.172 107.976C112.311 108.266 114.535 108.504 116.817 108.687C117.42 105.832 118.08 103.105 118.788 100.538Z" fill="#222222"/>
<path d="M125.622 100.883C123.648 100.84 121.699 100.75 119.793 100.615C119.16 103.19 118.572 105.922 118.031 108.781C120.333 108.947 122.69 109.054 125.074 109.107C125.242 106.232 125.424 103.48 125.622 100.885V100.883Z" fill="#222222"/>
<path d="M132.638 100.833C130.644 100.906 128.645 100.928 126.666 100.901C126.549 103.495 126.436 106.25 126.336 109.127C128.728 109.157 131.142 109.132 133.551 109.044C133.271 106.172 132.966 103.422 132.638 100.833Z" fill="#222222"/>
<path d="M139.625 100.365C137.671 100.558 135.689 100.698 133.695 100.788C134.101 103.375 134.481 106.12 134.826 108.989C137.233 108.882 139.63 108.712 141.989 108.479C141.264 105.637 140.473 102.92 139.625 100.365Z" fill="#222222"/>
<path d="M146.286 99.4746C145.325 99.6397 144.327 99.7949 143.288 99.9375C142.42 100.055 141.542 100.163 140.656 100.26C141.582 102.807 142.445 105.517 143.236 108.351C144.304 108.234 145.365 108.106 146.416 107.961C147.669 107.791 148.875 107.603 150.036 107.403C148.888 104.616 147.632 101.964 146.286 99.4746Z" fill="#222222"/>
<path d="M151.959 98.2441C150.511 98.6344 148.924 98.9897 147.203 99.3099C148.619 101.787 149.938 104.429 151.146 107.203C153.223 106.818 155.142 106.388 156.89 105.917C155.379 103.21 153.728 100.641 151.957 98.2441H151.959Z" fill="#222222"/>
<path d="M156.484 96.7471C155.373 97.2024 154.117 97.6352 152.719 98.0355C154.545 100.417 156.249 102.969 157.808 105.664C159.496 105.181 161.018 104.661 162.359 104.108C160.56 101.496 158.593 99.0313 156.487 96.7471H156.484Z" fill="#222222"/>
<path d="M159.761 95.0469C159.011 95.5523 158.105 96.0401 157.047 96.5055C159.199 98.7722 161.205 101.219 163.039 103.816C164.315 103.256 165.411 102.665 166.319 102.055C164.31 99.5503 162.116 97.206 159.761 95.0469Z" fill="#222222"/>
<path d="M161.747 93.2002C161.379 93.7381 160.844 94.266 160.148 94.7764C162.533 96.913 164.752 99.2398 166.786 101.727C167.624 101.109 168.272 100.471 168.717 99.8227C166.583 97.4359 164.252 95.2192 161.747 93.2002Z" fill="#222222"/>
<path d="M162.348 91.2711C162.38 91.824 162.24 92.3744 161.93 92.9148C164.447 94.9138 166.791 97.1105 168.938 99.4773C169.313 98.8243 169.483 98.1588 169.443 97.4908C167.271 95.2266 164.897 93.145 162.35 91.2686L162.348 91.2711Z" fill="#222222"/>
<path d="M161.484 89.3193C161.942 89.8698 162.212 90.4252 162.31 90.9781C164.854 92.832 167.226 94.8935 169.398 97.1377C169.315 96.6674 169.13 96.1945 168.832 95.7242C167.536 94.4457 165.8 92.7444 164.434 91.5385C163.481 90.7629 162.498 90.0249 161.487 89.3193H161.484Z" fill="#222222"/>
<path d="M94.8828 89.5453C95.2806 89.0098 95.846 88.4844 96.5666 87.9766C95.4682 88.7321 94.4049 89.5352 93.3791 90.3834L93.2015 90.526C92.0256 91.5568 90.4419 92.9203 89.3135 94.0061C88.7481 94.464 88.2903 94.9318 87.9375 95.4072C90.0641 93.2531 92.3884 91.2916 94.8828 89.5453Z" fill="#222222"/>
<path d="M94.1685 91.4713C94.1685 90.9184 94.3387 90.3705 94.6789 89.8301C92.1695 91.5989 89.8327 93.5804 87.6936 95.7521C87.2833 96.405 87.0756 97.068 87.0781 97.7335C89.2498 95.4568 91.6241 93.3602 94.171 91.4713H94.1685Z" fill="#222222"/>
<path d="M94.9253 93.4224C94.5 92.872 94.2598 92.3166 94.1973 91.7637C91.6528 93.6751 89.281 95.7917 87.1094 98.0884C87.1869 98.7565 87.4772 99.427 87.99 100.095C90.1142 97.6956 92.4359 95.4615 94.9253 93.4249V93.4224Z" fill="#222222"/>
<path d="M97.198 95.3411C96.3299 94.8082 95.6569 94.2628 95.1665 93.7148C92.6946 95.7739 90.3904 98.0256 88.2812 100.445C88.8717 101.108 89.6873 101.766 90.7356 102.411C92.7146 99.8895 94.8788 97.5227 97.198 95.3436V95.3411Z" fill="#222222"/>
<path d="M109.14 89.9024C108.232 89.5847 107.416 89.2394 106.708 88.8691C104.134 90.618 101.685 92.5844 99.3828 94.7411C100.334 95.2364 101.427 95.6993 102.643 96.1246C104.684 93.8579 106.856 91.7738 109.14 89.9024Z" fill="#222222"/>
<path d="M112.707 90.907C111.606 90.6543 110.578 90.3741 109.637 90.0664C107.41 91.9578 105.294 94.0619 103.305 96.3462C104.563 96.759 105.942 97.1342 107.418 97.4745C109.079 95.1002 110.848 92.901 112.707 90.9095V90.907Z" fill="#222222"/>
<path d="M116.865 91.6761C115.616 91.4934 114.42 91.2808 113.292 91.0381C111.503 93.0471 109.802 95.2588 108.203 97.6481C109.712 97.9733 111.315 98.2585 112.989 98.5012C114.205 96.0444 115.501 93.7601 116.862 91.6761H116.865Z" fill="#222222"/>
<path d="M121.471 92.1918C120.118 92.0842 118.799 91.9416 117.531 91.7715C116.25 93.8656 115.029 96.1648 113.883 98.6292C115.582 98.8593 117.35 99.047 119.164 99.1946C119.89 96.6852 120.66 94.3384 121.471 92.1943V92.1918Z" fill="white"/>
<path d="M126.37 92.4387C124.956 92.4087 123.56 92.3437 122.194 92.2461C121.469 94.3977 120.781 96.7495 120.133 99.2664C121.962 99.3965 123.836 99.4841 125.73 99.5241C125.932 96.9872 126.147 94.6129 126.373 92.4387H126.37Z" fill="#222222"/>
<path d="M131.393 92.4023C129.964 92.4549 128.533 92.4699 127.114 92.4524C126.979 94.629 126.849 97.0033 126.727 99.5427C128.628 99.5678 130.544 99.5452 132.458 99.4777C132.123 96.9458 131.765 94.5765 131.39 92.4048L131.393 92.4023Z" fill="#222222"/>
<path d="M136.402 92.0684C135.003 92.206 133.582 92.306 132.156 92.3711C132.622 94.5377 133.064 96.9045 133.48 99.4339C135.391 99.3464 137.295 99.2138 139.172 99.0286C138.301 96.5317 137.375 94.2 136.404 92.0684H136.402Z" fill="#222222"/>
<path d="M141.171 91.4312C140.483 91.5513 139.768 91.6614 139.025 91.7615C138.402 91.8465 137.774 91.9241 137.141 91.9916C138.201 94.1132 139.212 96.435 140.16 98.9244C141.011 98.8318 141.852 98.7292 142.687 98.6141C143.683 98.479 144.641 98.3289 145.565 98.1713C144.186 95.742 142.717 93.4828 141.174 91.4287L141.171 91.4312Z" fill="#222222"/>
<path d="M145.236 90.5469C144.197 90.8246 143.062 91.0823 141.828 91.3099C143.449 93.3515 144.993 95.5957 146.444 98.0125C148.095 97.7073 149.619 97.3645 151.01 96.9892C149.196 94.655 147.267 92.4958 145.238 90.5469H145.236Z" fill="#222222"/>
<path d="M148.47 89.4766C147.675 89.8043 146.774 90.112 145.773 90.3998C147.868 92.3312 149.859 94.4728 151.73 96.7921C153.074 96.4068 154.28 95.994 155.346 95.5562C153.187 93.3345 150.887 91.3004 148.47 89.4791V89.4766Z" fill="#222222"/>
<path d="M150.835 88.2578C150.297 88.6206 149.649 88.9684 148.891 89.3011C151.355 91.1025 153.702 93.119 155.903 95.3206C156.919 94.8753 157.79 94.4075 158.508 93.9221C156.096 91.8305 153.532 89.9341 150.832 88.2578H150.835Z" fill="#222222"/>
<path d="M152.247 86.9355C151.982 87.3208 151.599 87.6986 151.102 88.0664C153.831 89.7176 156.431 91.5941 158.87 93.6656C159.535 93.1753 160.051 92.6674 160.404 92.152C157.842 90.203 155.115 88.4567 152.247 86.938V86.9355Z" fill="#222222"/>
<path d="M152.675 85.5547C152.7 85.95 152.598 86.3453 152.375 86.7331C155.257 88.2267 157.999 89.9505 160.576 91.877C160.874 91.3566 161.009 90.8287 160.979 90.2983C158.372 88.4969 155.595 86.9057 152.675 85.5547Z" fill="#222222"/>
<path d="M152.055 84.1553C152.382 84.5506 152.578 84.9484 152.645 85.3437C155.56 86.6697 158.334 88.2359 160.939 90.0172C160.846 89.4868 160.586 88.9539 160.148 88.4235C157.606 86.7722 154.899 85.3412 152.055 84.1553Z" fill="#222222"/>
<path d="M150.352 82.7852C150.997 83.1654 151.505 83.5557 151.878 83.9485C154.7 85.1094 157.387 86.5155 159.909 88.1467C159.749 87.9766 159.569 87.809 159.371 87.6413C158.195 86.8632 156.611 85.8475 155.398 85.1294C153.777 84.2413 152.093 83.4582 150.352 82.7852Z" fill="#222222"/>
<path d="M149.997 82.5839C151.12 83.0268 152.168 83.4346 153.254 83.9675C152.183 83.4121 150.69 82.8066 149.531 82.3438C149.691 82.4238 149.846 82.5039 149.997 82.5839Z" fill="#222222"/>
<path d="M105.834 82.9998C106.362 82.6596 106.988 82.3293 107.711 82.0166C105.904 82.7922 103.525 83.8955 101.769 84.7787L98.5387 86.6701C98.4261 86.7377 98.3185 86.8052 98.2109 86.8753C100.605 85.3466 103.155 84.0456 105.834 82.9998Z" fill="#222222"/>
<path d="M104.342 84.3187C104.627 83.9359 105.03 83.5581 105.548 83.1953C102.833 84.2661 100.254 85.5871 97.8272 87.1358C97.1341 87.6237 96.5937 88.129 96.2109 88.6419C98.7654 86.9732 101.482 85.5221 104.342 84.3187Z" fill="#222222"/>
<path d="M103.848 85.6964C103.848 85.3011 103.971 84.9083 104.214 84.5205C101.339 85.7489 98.6042 87.2225 96.0348 88.9138C95.7095 89.4317 95.5444 89.9596 95.5469 90.49C98.1539 88.6736 100.931 87.0674 103.848 85.6964Z" fill="#222222"/>
<path d="M104.382 87.0946C104.079 86.6993 103.906 86.3015 103.859 85.9062C100.942 87.2998 98.167 88.931 95.5625 90.7699C95.625 91.3003 95.8552 91.8332 96.263 92.3636C98.8125 90.3971 101.53 88.6308 104.382 87.0946Z" fill="#222222"/>
<path d="M106.009 88.4686C105.389 88.0858 104.906 87.6955 104.553 87.3027C101.721 88.8639 99.0241 90.6528 96.4922 92.6418C96.9625 93.1697 97.6105 93.6926 98.4412 94.2029C100.818 92.0888 103.347 90.1674 106.007 88.4686H106.009Z" fill="#222222"/>
<path d="M117.633 84.2272C117.128 84.0496 116.675 83.8595 116.28 83.6543C113.445 84.8477 110.705 86.2938 108.086 87.9651C108.749 88.3103 109.515 88.6331 110.363 88.9308C112.684 87.1344 115.116 85.5557 117.631 84.2272H117.633Z" fill="#222222"/>
<path d="M119.609 84.7882C118.997 84.6481 118.426 84.4929 117.903 84.3203C115.451 85.6713 113.085 87.27 110.82 89.0864C111.701 89.3741 112.662 89.6368 113.693 89.8745C115.584 87.9556 117.56 86.2493 119.607 84.7882H119.609Z" fill="#222222"/>
<path d="M121.928 85.2146C121.233 85.1121 120.57 84.9945 119.942 84.8594C117.973 86.338 116.069 88.0618 114.25 89.9958C115.303 90.2234 116.424 90.4211 117.595 90.5937C118.979 88.5822 120.427 86.7783 121.928 85.2146Z" fill="#222222"/>
<path d="M124.481 85.5008C123.728 85.4408 122.995 85.3632 122.289 85.2656C120.878 86.8393 119.514 88.6557 118.211 90.6797C119.399 90.8398 120.633 90.9724 121.901 91.075C122.727 89.0009 123.588 87.132 124.483 85.5008H124.481Z" fill="#222222"/>
<path d="M127.207 85.6388C126.421 85.6213 125.643 85.5863 124.885 85.5312C124.087 87.17 123.316 89.0439 122.578 91.1255C123.857 91.2155 125.165 91.2781 126.489 91.3056C126.719 89.2015 126.959 87.3001 127.207 85.6388Z" fill="#222222"/>
<path d="M130.007 85.6191C129.214 85.6467 128.419 85.6567 127.628 85.6467C127.478 87.3104 127.333 89.2144 127.195 91.3184C128.524 91.336 129.862 91.3184 131.201 91.2734C130.821 89.1743 130.42 87.2779 130.007 85.6191Z" fill="#222222"/>
<path d="M132.791 85.4336C132.013 85.5112 131.223 85.5662 130.43 85.6012C130.943 87.255 131.438 89.1464 131.911 91.243C133.247 91.1829 134.578 91.0879 135.886 90.9603C134.898 88.9012 133.862 87.0473 132.791 85.4336Z" fill="#222222"/>
<path d="M135.437 85.0791C135.054 85.1442 134.656 85.2067 134.244 85.2642C133.898 85.3118 133.548 85.3543 133.195 85.3918C134.364 86.9955 135.492 88.8394 136.57 90.8885C137.163 90.8234 137.754 90.7509 138.334 90.6733C139.03 90.5783 139.7 90.4757 140.343 90.3631C138.775 88.3816 137.133 86.6103 135.435 85.0791H135.437Z" fill="#222222"/>
<path d="M137.699 84.5879C137.121 84.743 136.49 84.8856 135.805 85.0132C137.591 86.5269 139.315 88.2857 140.966 90.2522C142.119 90.0395 143.183 89.7993 144.156 89.5391C142.092 87.6652 139.935 86.004 137.701 84.5904L137.699 84.5879Z" fill="#222222"/>
<path d="M139.493 83.9922C139.05 84.1748 138.55 84.345 137.992 84.5051C140.296 85.8986 142.523 87.5399 144.652 89.3963C145.59 89.1286 146.434 88.8383 147.179 88.5331C144.722 86.7893 142.153 85.2656 139.493 83.9922Z" fill="#222222"/>
<path d="M140.807 83.3145C140.51 83.5146 140.147 83.7097 139.727 83.8949C142.441 85.1458 145.063 86.647 147.57 88.3708C148.278 88.058 148.889 87.7328 149.391 87.3925C146.649 85.7963 143.78 84.4278 140.81 83.3145H140.807Z" fill="#222222"/>
<path d="M141.596 82.5791C141.449 82.7943 141.236 83.0044 140.961 83.2071C143.968 84.2954 146.87 85.6389 149.648 87.2126C150.113 86.8698 150.473 86.5146 150.718 86.1543C147.804 84.7182 144.754 83.5173 141.596 82.5791Z" fill="#222222"/>
<path d="M141.839 81.8105C141.852 82.0307 141.797 82.2509 141.672 82.466C144.847 83.3767 147.912 84.5526 150.841 85.9637C151.049 85.6009 151.144 85.2306 151.122 84.8604C148.154 83.5919 145.049 82.5686 141.837 81.8105H141.839Z" fill="#222222"/>
<path d="M141.495 81.0332C141.677 81.2534 141.785 81.4735 141.822 81.6937C145.032 82.4218 148.132 83.4225 151.097 84.6634C151.032 84.2932 150.849 83.9204 150.544 83.5501C147.652 82.4518 144.625 81.6061 141.492 81.0332H141.495Z" fill="#222222"/>
<path d="M140.539 80.2695C140.897 80.4822 141.18 80.6974 141.387 80.915C144.495 81.4604 147.497 82.2811 150.367 83.3544C150.016 82.9866 149.541 82.6213 148.938 82.266C146.253 81.3353 143.446 80.6623 140.539 80.2695Z" fill="#222222"/>
<path d="M139.016 79.5773C139.511 79.7574 139.956 79.9501 140.339 80.1577C143.199 80.523 145.963 81.171 148.603 82.0767C148.405 81.9691 148.2 81.864 147.982 81.7614L145.763 80.9908C145.325 80.8432 144.968 80.7006 144.542 80.548C142.753 80.0701 140.91 79.7424 139.016 79.5723V79.5773Z" fill="#222222"/>
<path d="M137.065 79.0098C137.67 79.1524 138.233 79.3125 138.746 79.4851C140.593 79.6377 142.392 79.9505 144.135 80.4108C143.903 80.3308 143.663 80.2557 143.415 80.1807C142.239 79.8804 140.668 79.5026 139.479 79.2524C138.686 79.1274 137.881 79.0473 137.062 79.0098H137.065Z" fill="#222222"/>
<path d="M134.781 78.5713C135.472 78.6764 136.13 78.7965 136.748 78.9341C137.356 78.9566 137.959 79.0066 138.554 79.0817L137.696 78.9466C137.316 78.8665 136.923 78.7915 136.52 78.7239C136.28 78.6814 136.035 78.6438 135.787 78.6063L134.781 78.5713Z" fill="#222222"/>
<path d="M132.234 78.2737C132.982 78.3362 133.713 78.4188 134.414 78.5164C134.734 78.5113 135.049 78.5214 135.364 78.5439C134.916 78.4813 134.456 78.4238 133.988 78.3738C133.613 78.3337 133.233 78.2962 132.85 78.2637C132.647 78.2537 132.442 78.2562 132.237 78.2737H132.234Z" fill="#222222"/>
<path d="M131.83 78.2419L132.383 78.2269C132.016 78.1993 131.643 78.1743 131.268 78.1543H130.359C130.802 78.1793 131.39 78.2319 131.833 78.2419H131.83Z" fill="#222222"/>
<path d="M123.941 78.3059C124.479 78.2608 125.195 78.2083 125.733 78.1758C125.257 78.1883 124.624 78.1958 124.149 78.2258C123.856 78.2483 123.564 78.2734 123.273 78.3009C123.494 78.2884 123.716 78.2909 123.939 78.3059H123.941Z" fill="#222222"/>
<path d="M121.268 78.649C121.594 78.594 121.929 78.5439 122.274 78.4964C122.687 78.4389 123.105 78.3888 123.528 78.3463C123.282 78.3313 123.04 78.3338 122.797 78.3463C122.309 78.3963 121.826 78.4539 121.351 78.5189C120.868 78.584 120.225 78.6665 119.742 78.7391C120.245 78.6815 120.753 78.649 121.268 78.6465V78.649Z" fill="#222222"/>
<path d="M118.981 79.1288C119.566 78.9761 120.209 78.836 120.902 78.7109C120.299 78.7184 119.704 78.7635 119.116 78.841C117.139 79.1988 116.884 79.2463 115.445 79.5866C116.599 79.3489 117.78 79.1963 118.981 79.1288Z" fill="#222222"/>
<path d="M117.135 79.7198C117.588 79.5397 118.099 79.3695 118.667 79.2119C117.346 79.2945 116.05 79.4746 114.784 79.7498C113.901 79.9925 112.725 80.3303 111.851 80.603L109.938 81.2059C112.244 80.4679 114.651 79.965 117.138 79.7198H117.135Z" fill="#222222"/>
<path d="M115.805 80.3899C116.115 80.1897 116.488 79.9971 116.919 79.8145C114.232 80.0997 111.635 80.6676 109.155 81.4982C108.43 81.806 107.802 82.1312 107.281 82.469C110.006 81.5107 112.855 80.8102 115.808 80.3899H115.805Z" fill="#222222"/>
<path d="M114.959 81.1235C115.117 80.9109 115.342 80.7007 115.63 80.498C112.642 80.9434 109.755 81.6689 106.996 82.6497C106.51 82.9899 106.132 83.3427 105.867 83.703C108.772 82.5846 111.812 81.7165 114.959 81.1235Z" fill="#222222"/>
<path d="M114.683 81.8893C114.683 81.6692 114.751 81.4515 114.886 81.2363C111.721 81.8568 108.663 82.75 105.741 83.8933C105.514 84.2561 105.398 84.6239 105.398 84.9942C108.366 83.7082 111.471 82.6649 114.683 81.8893Z" fill="#222222"/>
<path d="M114.976 82.6664C114.806 82.4462 114.711 82.226 114.686 82.0059C111.473 82.809 108.371 83.8798 105.406 85.1883C105.449 85.5585 105.611 85.9313 105.894 86.3016C108.796 84.8455 111.831 83.6246 114.976 82.6664Z" fill="#222222"/>
<path d="M115.893 83.4332C115.548 83.2205 115.28 83.0028 115.085 82.7852C111.965 83.7734 108.95 85.0193 106.07 86.5005C106.398 86.8682 106.851 87.2335 107.431 87.5913C110.136 85.9701 112.966 84.574 115.893 83.4332Z" fill="#222222"/>
<path d="M126.831 80.6225C126.763 80.6 126.703 80.5724 126.648 80.5449C123.618 81.1003 120.656 81.9435 117.789 83.0468C118.134 83.2269 118.53 83.3946 118.97 83.5472C121.514 82.3063 124.141 81.3205 126.828 80.62L126.831 80.6225Z" fill="#222222"/>
<path d="M127.099 80.6973C127.017 80.6773 126.939 80.6573 126.869 80.6348C124.25 81.3578 121.69 82.3661 119.211 83.6295C119.666 83.7796 120.167 83.9147 120.702 84.0373C122.774 82.6638 124.91 81.5379 127.099 80.6973Z" fill="#222222"/>
<path d="M127.407 80.7555C127.314 80.743 127.224 80.7255 127.139 80.708C125.035 81.5687 122.978 82.7095 120.984 84.1006C121.532 84.2182 122.113 84.3207 122.721 84.4108C124.237 82.9347 125.803 81.7038 127.407 80.7555Z" fill="#222222"/>
<path d="M127.753 80.7933C127.653 80.7858 127.553 80.7758 127.458 80.7607C125.949 81.724 124.475 82.9674 123.047 84.456C123.662 84.5386 124.303 84.6086 124.961 84.6612C125.864 83.115 126.797 81.8165 127.753 80.7933Z" fill="#222222"/>
<path d="M128.12 80.8099C128.015 80.8099 127.909 80.8024 127.807 80.7949C126.954 81.8257 126.121 83.1317 125.312 84.6854C125.976 84.7329 126.656 84.7629 127.342 84.7779C127.594 83.1992 127.854 81.8657 128.12 80.8099Z" fill="#222222"/>
<path d="M128.494 80.8072C128.386 80.8122 128.281 80.8122 128.173 80.8097C128.013 81.868 127.856 83.204 127.703 84.7852C128.391 84.7952 129.087 84.7852 129.782 84.7602C129.364 83.1865 128.934 81.858 128.494 80.8047V80.8072Z" fill="#222222"/>
<path d="M128.865 80.7832C128.76 80.7932 128.654 80.8007 128.547 80.8057C129.095 81.854 129.628 83.1775 130.148 84.7487C130.841 84.7162 131.532 84.6686 132.212 84.6011C131.129 83.0724 130.01 81.789 128.867 80.7832H128.865Z" fill="#222222"/>
<path d="M129.222 80.7363C129.17 80.7463 129.117 80.7538 129.062 80.7613C129.014 80.7688 128.969 80.7739 128.922 80.7789C130.17 81.7721 131.389 83.0456 132.572 84.5642C132.88 84.5317 133.185 84.4942 133.488 84.4516C133.848 84.4016 134.196 84.3491 134.531 84.2915C132.812 82.8479 131.038 81.652 129.225 80.7363H129.222Z" fill="#222222"/>
<path d="M129.521 80.6699C129.443 80.6899 129.358 80.71 129.266 80.7275C131.172 81.6256 133.038 82.8065 134.845 84.2326C135.443 84.1225 135.996 83.9974 136.501 83.8623C134.242 82.5363 131.908 81.4605 129.521 80.6699Z" fill="#222222"/>
<path d="M129.765 80.5898C129.705 80.6149 129.638 80.6374 129.562 80.6599C132.024 81.4305 134.431 82.4838 136.765 83.7898C137.253 83.6497 137.691 83.4995 138.076 83.3419C135.384 82.1585 132.607 81.2303 129.765 80.5898Z" fill="#222222"/>
<path d="M129.942 80.5C129.902 80.5275 129.854 80.5525 129.797 80.5776C132.697 81.193 135.531 82.0962 138.278 83.2571C138.646 83.0945 138.961 82.9243 139.224 82.7492C136.219 81.7284 133.117 80.9679 129.944 80.5H129.942Z" fill="#222222"/>
<path d="M130.054 80.4004C130.034 80.4304 130.006 80.4579 129.969 80.4855C133.181 80.9283 136.319 81.6613 139.361 82.6571C139.604 82.4795 139.789 82.2943 139.916 82.1092C136.721 81.2635 133.426 80.6856 130.054 80.4029V80.4004Z" fill="#222222"/>
<path d="M130.077 80.2974C130.077 80.3274 130.072 80.3575 130.055 80.385C133.445 80.6402 136.76 81.1881 139.97 82.0062C140.077 81.8186 140.127 81.6259 140.115 81.4333C136.865 80.7728 133.507 80.385 130.075 80.2949L130.077 80.2974Z" fill="#222222"/>
<path d="M130.039 80.1929C130.064 80.2229 130.079 80.2529 130.084 80.2829C133.514 80.343 136.864 80.7007 140.114 81.3337C140.082 81.1411 139.987 80.9484 139.827 80.7558C136.657 80.2804 133.387 80.0853 130.039 80.1929Z" fill="#222222"/>
<path d="M129.906 80.0905C129.954 80.118 129.991 80.1481 130.021 80.1781C133.341 80.0405 136.586 80.2081 139.731 80.656C139.549 80.4658 139.303 80.2757 138.988 80.0905C136.046 79.7978 133.011 79.7903 129.906 80.0905Z" fill="#222222"/>
<path d="M129.703 79.9968C129.771 80.0218 129.828 80.0468 129.881 80.0744C132.936 79.7466 135.923 79.7266 138.818 79.9918C138.482 79.8092 138.095 79.639 137.662 79.4839C135.085 79.3563 132.425 79.5214 129.703 79.9968Z" fill="#222222"/>
<path d="M129.448 79.9195C129.528 79.9396 129.605 79.9596 129.673 79.9846C132.328 79.4842 134.919 79.2991 137.434 79.4016C136.986 79.249 136.493 79.1114 135.963 78.9863C133.854 78.9963 131.675 79.3016 129.445 79.9195H129.448Z" fill="#222222"/>
<path d="M129.133 79.8614C129.225 79.8764 129.313 79.8914 129.398 79.9115C131.545 79.2735 133.641 78.9507 135.675 78.9232C135.135 78.8031 134.559 78.698 133.956 78.6055C132.395 78.7206 130.784 79.1334 129.135 79.8639L129.133 79.8614Z" fill="#222222"/>
<path d="M128.799 79.8224C128.899 79.8299 128.997 79.8424 129.092 79.8549C130.648 79.1118 132.169 78.684 133.641 78.5564C133.028 78.4713 132.392 78.3988 131.737 78.3438C130.786 78.5289 129.803 79.0168 128.797 79.8224H128.799Z" fill="#222222"/>
<path d="M128.424 79.8027C128.529 79.8053 128.635 79.8103 128.735 79.8178C129.638 79.0046 130.523 78.5093 131.379 78.3166C130.841 78.2766 130.291 78.2466 129.733 78.2266H129.408L129.305 78.2291C129.04 78.4893 128.7 79.0672 128.422 79.8027H128.424Z" fill="#222222"/>
<path d="M128.053 79.8019C128.161 79.7994 128.266 79.7969 128.373 79.8019C128.558 79.0664 128.844 78.491 129.021 78.2283C128.571 78.2258 127.865 78.2007 127.415 78.2057H126.93C127.59 78.8712 127.64 78.9338 128.053 79.8019Z" fill="#222222"/>
<path d="M127.677 79.8246C127.782 79.8146 127.887 79.8071 127.995 79.8046C127.502 78.9665 127.019 78.4511 126.551 78.2334C125.858 78.2609 125.165 78.3085 124.484 78.371C125.518 78.5486 126.586 79.0265 127.677 79.8246Z" fill="#222222"/>
<path d="M127.317 79.8718C127.36 79.8643 127.405 79.8568 127.452 79.8518C127.508 79.8443 127.565 79.8368 127.62 79.8318C126.424 79.0437 125.256 78.5758 124.122 78.4082C123.755 78.4457 123.389 78.4908 123.027 78.5408C122.724 78.5833 122.431 78.6259 122.148 78.6734C123.822 78.7685 125.549 79.1638 127.317 79.8743V79.8718Z" fill="#222222"/>
<path d="M127.021 79.9369C127.102 79.9169 127.187 79.8969 127.279 79.8819C125.418 79.1864 123.599 78.8111 121.835 78.7285C121.23 78.8361 120.667 78.9587 120.156 79.0938C122.38 79.0738 124.675 79.349 127.021 79.9369Z" fill="#222222"/>
<path d="M126.763 80.0158C126.823 79.9908 126.893 79.9683 126.968 79.9483C124.544 79.3804 122.172 79.1252 119.878 79.1652C119.382 79.3028 118.934 79.4504 118.539 79.608C121.201 79.4479 123.951 79.5755 126.763 80.0158Z" fill="#222222"/>
<path d="M126.587 80.107C126.629 80.0795 126.679 80.0545 126.737 80.0295C123.865 79.6142 121.06 79.5091 118.34 79.6917C117.963 79.8518 117.637 80.0195 117.367 80.1946C120.352 79.8744 123.434 79.8368 126.587 80.107Z" fill="#222222"/>
<path d="M126.473 80.2057C126.496 80.1781 126.526 80.1481 126.563 80.1206C123.371 79.8779 120.251 79.9405 117.226 80.2882C116.976 80.4659 116.778 80.6485 116.641 80.8336C119.826 80.3383 123.111 80.1181 126.473 80.2032V80.2057Z" fill="#222222"/>
<path d="M126.431 80.308C126.431 80.278 126.441 80.248 126.458 80.2205C123.076 80.1654 119.771 80.4106 116.568 80.9335C116.451 81.1212 116.391 81.3113 116.391 81.5039C119.641 80.8234 122.998 80.4156 126.431 80.308Z" fill="#222222"/>
<path d="M126.466 80.4123C126.443 80.3823 126.431 80.3523 126.426 80.3223C122.996 80.4599 119.641 80.8977 116.391 81.6057C116.413 81.7984 116.496 81.991 116.643 82.1837C119.823 81.318 123.106 80.7176 126.463 80.4123H126.466Z" fill="#222222"/>
<path d="M126.608 80.5153C126.56 80.4878 126.525 80.4578 126.5 80.4277C123.167 80.763 119.907 81.391 116.75 82.2866C116.92 82.4768 117.155 82.6669 117.458 82.8521C120.42 81.8038 123.48 81.0132 126.608 80.5153Z" fill="#222222"/>
<path d="M129.015 52.1064H127.523V80.7931H129.015V52.1064Z" fill="#222222"/>
<path d="M167.575 62.144C161.346 62.144 157.538 65.9519 157.538 72.1816C157.538 65.9519 153.73 62.144 147.5 62.144C153.73 62.144 157.538 58.3361 157.538 52.1064C157.538 58.3361 161.346 62.144 167.575 62.144Z" fill="#222222"/>
<path d="M167.575 62.144C161.346 62.144 157.538 65.9519 157.538 72.1816C157.538 65.9519 153.73 62.144 147.5 62.144C153.73 62.144 157.538 58.3361 157.538 52.1064C157.538 58.3361 161.346 62.144 167.575 62.144Z" fill="#222222"/>
<path d="M185.834 182.985C181.09 182.985 178.19 185.885 178.19 190.628C178.19 185.885 175.29 182.985 170.547 182.985C175.29 182.985 178.19 180.085 178.19 175.342C178.19 180.085 181.09 182.985 185.834 182.985Z" fill="#222222"/>
<path d="M185.834 182.985C181.09 182.985 178.19 185.885 178.19 190.628C178.19 185.885 175.29 182.985 170.547 182.985C175.29 182.985 178.19 180.085 178.19 175.342C178.19 180.085 181.09 182.985 185.834 182.985Z" fill="#222222"/>
<path d="M71.2589 170.954C68.0239 170.954 66.0474 172.93 66.0474 176.165C66.0474 172.93 64.0709 170.954 60.8359 170.954C64.0709 170.954 66.0474 168.977 66.0474 165.742C66.0474 168.977 68.0239 170.954 71.2589 170.954Z" fill="#222222"/>
<path d="M71.2589 170.954C68.0239 170.954 66.0474 172.93 66.0474 176.165C66.0474 172.93 64.0709 170.954 60.8359 170.954C64.0709 170.954 66.0474 168.977 66.0474 165.742C66.0474 168.977 68.0239 170.954 71.2589 170.954Z" fill="#222222"/>
<path d="M101.015 73.4001C98.0628 73.4001 96.2614 75.2039 96.2614 78.1537C96.2614 75.2014 94.4576 73.4001 91.5078 73.4001C94.4601 73.4001 96.2614 71.5962 96.2614 68.6465C96.2614 71.5987 98.0653 73.4001 101.015 73.4001Z" fill="#222222"/>
<path d="M101.015 73.4001C98.0628 73.4001 96.2614 75.2039 96.2614 78.1537C96.2614 75.2014 94.4576 73.4001 91.5078 73.4001C94.4601 73.4001 96.2614 71.5962 96.2614 68.6465C96.2614 71.5987 98.0653 73.4001 101.015 73.4001Z" fill="#222222"/>
<path d="M77.4283 49.8645C74.3134 49.8645 72.4094 51.7684 72.4094 54.8833C72.4094 51.7684 70.5055 49.8645 67.3906 49.8645C70.5055 49.8645 72.4094 47.9606 72.4094 44.8457C72.4094 47.9606 74.3134 49.8645 77.4283 49.8645Z" fill="#222222"/>
<path d="M77.4283 49.8645C74.3134 49.8645 72.4094 51.7684 72.4094 54.8833C72.4094 51.7684 70.5055 49.8645 67.3906 49.8645C70.5055 49.8645 72.4094 47.9606 72.4094 44.8457C72.4094 47.9606 74.3134 49.8645 77.4283 49.8645Z" fill="#222222"/>
<path d="M72.4112 98.5044C66.1815 98.5044 62.3736 102.312 62.3736 108.542C62.3736 102.312 58.5657 98.5044 52.3359 98.5044C58.5657 98.5044 62.3736 94.6965 62.3736 88.4668C62.3736 94.6965 66.1815 98.5044 72.4112 98.5044Z" fill="#222222"/>
<path d="M72.4112 98.5044C66.1815 98.5044 62.3736 102.312 62.3736 108.542C62.3736 102.312 58.5657 98.5044 52.3359 98.5044C58.5657 98.5044 62.3736 94.6965 62.3736 88.4668C62.3736 94.6965 66.1815 98.5044 72.4112 98.5044Z" fill="#222222"/>
<path d="M207.052 117.501C201.673 117.501 198.385 120.788 198.385 126.167C198.385 120.788 195.098 117.501 189.719 117.501C195.098 117.501 198.385 114.213 198.385 108.834C198.385 114.213 201.673 117.501 207.052 117.501Z" fill="#222222"/>
<path d="M207.052 117.501C201.673 117.501 198.385 120.788 198.385 126.167C198.385 120.788 195.098 117.501 189.719 117.501C195.098 117.501 198.385 114.213 198.385 108.834C198.385 114.213 201.673 117.501 207.052 117.501Z" fill="#222222"/>
<path d="M121.901 150.208C121.363 149.935 120.737 149.908 120.137 149.89C116.842 149.788 113.544 149.77 110.249 149.838C109.944 149.845 109.621 149.848 109.351 149.705C108.498 149.26 108.831 147.976 109.283 147.126C110.344 145.127 111.408 143.125 112.468 141.126C112.696 140.698 112.999 140.216 113.482 140.173C114.232 140.108 114.63 141.119 115.351 141.339C116.001 141.539 116.687 140.981 116.884 140.331C117.082 139.678 116.927 138.98 116.769 138.317C115.916 134.689 115.063 131.059 114.21 127.431C114.135 127.111 114.047 126.768 113.797 126.553C113.434 126.237 112.884 126.318 112.411 126.42C108.103 127.366 103.884 128.712 99.8287 130.443C99.0632 130.771 98.1525 131.519 98.5703 132.24C99.4485 133.748 101.633 133.403 101.137 135.627C100.697 137.596 98.7479 139.693 97.8272 141.501C96.6313 143.856 95.7607 146.488 96.0959 149.107C96.4937 152.23 98.5228 154.867 100.474 157.336C101.362 158.459 102.298 159.62 103.589 160.241C104.715 160.784 106.003 160.859 107.252 160.906C112.006 161.084 116.772 160.974 121.513 160.573C121.81 160.548 122.126 160.513 122.353 160.323C122.604 160.116 122.689 159.773 122.751 159.455C123.106 157.704 123.319 155.922 123.384 154.136C123.437 152.655 123.219 150.879 121.901 150.208Z" fill="white"/>
<path d="M111.636 161.844C110.163 161.844 108.692 161.817 107.226 161.762C105.827 161.709 104.471 161.611 103.222 161.011C101.729 160.295 100.708 159.004 99.8074 157.866C97.9735 155.544 95.6917 152.657 95.2514 149.215C94.9412 146.78 95.5366 144.128 97.0703 141.111C97.4331 140.393 97.921 139.675 98.4388 138.914C99.2395 137.736 100.065 136.52 100.305 135.439C100.47 134.694 100.29 134.591 99.5297 134.158C98.9793 133.843 98.2912 133.453 97.8359 132.67C97.5982 132.262 97.5507 131.791 97.6983 131.341C98.0285 130.348 99.1569 129.8 99.4971 129.655C103.588 127.911 107.874 126.54 112.229 125.584C112.65 125.492 113.633 125.276 114.358 125.904C114.829 126.31 114.964 126.888 115.044 127.233L117.603 138.119C117.759 138.779 117.971 139.685 117.704 140.576C117.523 141.176 117.088 141.706 116.545 141.994C116.082 142.242 115.569 142.297 115.099 142.152C114.586 141.997 114.226 141.641 113.936 141.359C113.816 141.241 113.613 141.046 113.533 141.021C113.555 141.031 113.445 141.108 113.225 141.526L110.04 147.526C109.727 148.119 109.632 148.657 109.702 148.884C109.833 148.989 110.07 148.994 110.235 148.982C113.565 148.919 116.905 148.934 120.168 149.037C120.793 149.057 121.569 149.079 122.295 149.447C123.678 150.153 124.334 151.739 124.246 154.168C124.178 155.997 123.961 157.836 123.596 159.627C123.528 159.958 123.403 160.571 122.902 160.986C122.457 161.354 121.914 161.401 121.589 161.429C118.296 161.707 114.964 161.847 111.636 161.847V161.844ZM113.12 127.18C113.027 127.18 112.867 127.195 112.6 127.253C108.346 128.186 104.163 129.525 100.17 131.226C99.6698 131.439 99.3545 131.766 99.3245 131.881C99.5397 132.194 99.93 132.414 100.38 132.672C101.191 133.135 102.419 133.833 101.979 135.809C101.666 137.211 100.746 138.564 99.8574 139.873C99.3721 140.588 98.9142 141.264 98.5965 141.884C97.2229 144.586 96.685 146.91 96.9502 148.994C97.328 151.967 99.3595 154.534 101.151 156.803C101.937 157.794 102.827 158.919 103.966 159.467C104.916 159.928 106.035 160.003 107.291 160.048C112.007 160.228 116.765 160.115 121.446 159.72C121.531 159.712 121.759 159.692 121.819 159.657C121.837 159.63 121.877 159.5 121.919 159.282C122.264 157.578 122.472 155.837 122.535 154.101C122.577 152.93 122.437 151.434 121.519 150.968C121.134 150.771 120.593 150.756 120.113 150.741C116.883 150.638 113.568 150.621 110.27 150.686C109.915 150.693 109.435 150.703 108.962 150.461C108.522 150.233 108.216 149.86 108.069 149.387C107.751 148.364 108.284 147.181 108.529 146.72L111.714 140.721C111.922 140.325 112.412 139.407 113.405 139.317C114.246 139.237 114.749 139.762 115.129 140.135C115.294 140.298 115.482 140.48 115.599 140.515C115.882 140.408 116.017 140.243 116.067 140.08C116.202 139.63 116.062 139.034 115.94 138.509L113.38 127.623C113.355 127.521 113.293 127.255 113.238 127.193C113.228 127.188 113.195 127.178 113.118 127.178L113.12 127.18Z" fill="#222222"/>
<path d="M145.166 127.105C145.444 127.167 145.734 127.227 146.005 127.142C146.512 126.982 146.723 126.392 146.86 125.876C147.974 121.751 148.937 117.585 149.747 113.387C149.787 113.189 149.825 112.984 149.785 112.786C149.685 112.286 149.097 112.006 148.589 112.071C148.081 112.136 147.648 112.451 147.251 112.771C146.87 113.079 146.432 113.419 145.952 113.334C145.517 113.257 145.224 112.856 144.984 112.486C142.182 108.188 139.482 103.209 134.643 101.495C132.116 100.6 129.354 100.755 126.677 100.92C124.841 101.032 122.904 101.18 121.383 102.213C120.668 102.699 120.087 103.354 119.532 104.017C117.578 106.351 115.847 108.868 114.365 111.525C113.617 112.869 110.728 117.665 111.418 119.081C111.681 119.624 112.256 119.932 112.794 120.202C114.521 121.075 116.247 121.946 117.973 122.819C118.664 123.169 119.439 123.527 120.185 123.317C120.803 123.144 121.246 122.619 121.641 122.113C123.592 119.639 125.376 117.032 126.978 114.317C127.285 113.797 127.601 113.257 128.081 112.889C128.564 112.524 129.264 112.374 129.775 112.699C130.047 112.871 130.228 113.152 130.4 113.427C131.393 115.011 132.312 116.637 133.152 118.305C133.668 119.329 134.073 120.762 133.16 121.455C132.437 122.006 131.108 121.841 130.861 122.716C130.628 123.542 131.696 124.085 132.534 124.272C136.745 125.213 140.956 126.156 145.169 127.097L145.166 127.105Z" fill="white"/>
<path d="M145.715 128.041C145.432 128.041 145.177 127.984 144.984 127.941L132.35 125.117C131.882 125.012 130.736 124.674 130.218 123.808C129.975 123.4 129.915 122.948 130.04 122.495C130.321 121.504 131.266 121.241 131.892 121.069C132.184 120.986 132.49 120.903 132.647 120.786C133.048 120.483 132.805 119.52 132.395 118.699C131.569 117.066 130.656 115.444 129.683 113.891C129.582 113.728 129.442 113.508 129.32 113.43C129.162 113.328 128.842 113.398 128.602 113.58C128.264 113.838 128.006 114.273 127.736 114.734C126.105 117.498 124.288 120.15 122.317 122.65C121.824 123.275 121.271 123.906 120.421 124.146C119.312 124.451 118.234 123.913 117.591 123.588L112.412 120.974C111.872 120.701 111.051 120.288 110.653 119.46C109.973 118.061 111.244 115.297 113.36 111.579L113.623 111.116C115.126 108.419 116.895 105.847 118.882 103.473C119.435 102.817 120.09 102.069 120.911 101.511C122.67 100.318 124.866 100.18 126.63 100.073C129.247 99.9101 132.207 99.73 134.937 100.693C139.51 102.314 142.182 106.508 144.769 110.566L145.705 112.024C145.967 112.425 146.073 112.487 146.105 112.495C146.175 112.485 146.388 112.375 146.721 112.109C147.226 111.702 147.786 111.314 148.489 111.224C149.345 111.124 150.426 111.611 150.631 112.617C150.704 112.983 150.641 113.31 150.596 113.548C149.785 117.741 148.807 121.964 147.694 126.095C147.571 126.555 147.278 127.634 146.27 127.954C146.083 128.016 145.897 128.036 145.72 128.036L145.715 128.041ZM145.355 126.273C145.46 126.298 145.677 126.355 145.747 126.33C145.77 126.318 145.885 126.225 146.04 125.657C147.141 121.564 148.109 117.381 148.912 113.23C148.93 113.148 148.955 113.008 148.95 112.96C148.93 112.96 148.827 112.907 148.702 112.925C148.409 112.962 148.077 113.213 147.791 113.443C147.376 113.778 146.683 114.339 145.805 114.183C144.969 114.036 144.496 113.313 144.269 112.962C143.953 112.477 143.638 111.987 143.323 111.489C140.891 107.676 138.377 103.736 134.359 102.309C131.957 101.459 129.3 101.624 126.73 101.782C125.092 101.884 123.235 101.997 121.864 102.93C121.224 103.363 120.686 103.978 120.185 104.574C118.269 106.865 116.56 109.345 115.109 111.949L114.841 112.427C112.092 117.256 112.067 118.434 112.187 118.717C112.322 119 112.732 119.222 113.177 119.447L118.356 122.062C118.927 122.352 119.507 122.632 119.95 122.5C120.308 122.4 120.636 122.012 120.968 121.592C122.89 119.152 124.664 116.563 126.24 113.893C126.585 113.308 126.955 112.68 127.563 112.219C128.392 111.591 129.462 111.499 130.235 111.992C130.681 112.277 130.949 112.702 131.126 112.985C132.127 114.584 133.068 116.25 133.916 117.931C134.851 119.785 134.764 121.321 133.678 122.149C133.26 122.467 132.772 122.602 132.345 122.72C132.122 122.782 131.752 122.882 131.679 122.968C131.727 123.043 132.117 123.315 132.72 123.45L145.355 126.275V126.273Z" fill="#222222"/>
<path d="M163.514 142.834C163.298 141.155 161.702 140.072 160.531 138.848C158.24 136.457 157.346 133.047 155.357 130.397C154.692 129.509 153.744 128.648 152.638 128.746C152.077 128.796 151.572 129.091 151.087 129.379C149.736 130.184 148.387 130.988 147.036 131.791C146.003 132.409 144.829 133.264 144.894 134.468C144.917 134.916 145.122 135.333 145.322 135.736C147.234 139.564 149.303 143.312 151.524 146.967C151.832 147.475 145.512 147.425 145.097 147.392C144.344 147.335 142.31 147.715 141.725 147.43C140.861 147.012 141.159 145.554 141.124 144.495C141.114 144.238 141.104 143.967 140.971 143.747C140.701 143.292 140.026 143.239 139.558 143.489C139.093 143.74 138.782 144.2 138.48 144.633C137.329 146.277 135.99 147.788 134.496 149.126C133.313 150.187 132.015 151.16 131.121 152.474C130.228 153.787 129.808 155.574 130.564 156.97C130.936 157.663 131.552 158.186 132.152 158.693C134.054 160.297 135.958 161.903 137.859 163.507C138.392 163.957 138.945 164.418 139.608 164.633C140.271 164.848 141.082 164.763 141.544 164.24C142.19 163.51 141.91 162.304 142.46 161.498C142.96 160.763 143.964 160.61 144.849 160.52C147.491 160.257 150.136 159.994 152.778 159.732C154.834 159.527 157.101 159.219 158.46 157.66C159.16 156.855 159.518 155.816 159.861 154.806C160.929 151.648 162 148.488 163.068 145.331C163.341 144.523 163.619 143.682 163.511 142.837L163.514 142.834Z" fill="white"/>
<path d="M140.312 165.6C139.997 165.6 139.672 165.55 139.349 165.445C138.511 165.172 137.848 164.609 137.312 164.159L131.608 159.345C130.983 158.815 130.27 158.217 129.819 157.374C128.821 155.53 129.476 153.386 130.422 151.992C131.19 150.864 132.201 149.991 133.182 149.145C133.434 148.927 133.687 148.71 133.932 148.489C135.376 147.196 136.672 145.732 137.785 144.144C138.138 143.636 138.533 143.073 139.161 142.735C139.967 142.302 141.175 142.402 141.713 143.313C141.956 143.721 141.971 144.149 141.986 144.464C141.994 144.722 141.986 144.994 141.976 145.269C141.963 145.627 141.933 146.578 142.104 146.661C142.326 146.723 143.269 146.646 143.775 146.603C144.333 146.555 144.848 146.505 145.171 146.54C145.679 146.575 148.651 146.573 150.217 146.448C148.216 143.098 146.314 139.628 144.563 136.12C144.348 135.685 144.08 135.149 144.048 134.514C143.957 132.855 145.366 131.797 146.605 131.059L150.655 128.647C151.17 128.342 151.806 127.964 152.567 127.896C153.765 127.796 154.988 128.477 156.047 129.888C156.957 131.104 157.645 132.457 158.308 133.766C159.152 135.43 159.947 137.003 161.153 138.262C161.401 138.519 161.671 138.775 161.941 139.027C162.982 140.005 164.158 141.114 164.368 142.725C164.503 143.783 164.16 144.794 163.888 145.605L160.68 155.079C160.332 156.11 159.935 157.279 159.114 158.222C157.585 159.981 155.191 160.353 152.872 160.584L144.943 161.374C144.24 161.447 143.467 161.557 143.174 161.985C143.024 162.205 142.967 162.568 142.907 162.95C142.814 163.526 142.704 164.239 142.194 164.812C141.736 165.327 141.053 165.605 140.315 165.605L140.312 165.6ZM140.237 144.179C140.225 144.189 140.08 144.181 139.964 144.241C139.697 144.384 139.467 144.717 139.221 145.067C137.995 146.821 136.612 148.382 135.073 149.76C134.818 149.988 134.558 150.216 134.298 150.441C133.362 151.249 132.476 152.012 131.833 152.953C131.2 153.883 130.687 155.387 131.323 156.561C131.623 157.121 132.176 157.586 132.711 158.039L138.418 162.853C138.861 163.226 139.359 163.648 139.879 163.818C140.285 163.951 140.72 163.891 140.913 163.673C141.09 163.473 141.148 163.103 141.215 162.678C141.298 162.152 141.393 161.557 141.761 161.019C142.526 159.898 143.988 159.75 144.771 159.673L152.699 158.882C154.761 158.675 156.702 158.384 157.823 157.098C158.424 156.408 158.746 155.455 159.059 154.531L162.266 145.057C162.507 144.346 162.757 143.611 162.672 142.945C162.542 141.942 161.681 141.131 160.77 140.273C160.48 139.998 160.19 139.723 159.92 139.443C158.539 138.001 157.648 136.243 156.785 134.539C156.124 133.238 155.501 132.009 154.678 130.911C154.29 130.391 153.565 129.523 152.719 129.598C152.346 129.63 151.931 129.878 151.528 130.116L147.48 132.527C146.72 132.98 145.716 133.668 145.756 134.421C145.771 134.704 145.936 135.037 146.094 135.357C147.996 139.16 150.072 142.92 152.261 146.523L152.534 146.968L152.261 147.484C151.571 148.607 145.103 148.249 145.041 148.247C144.783 148.219 144.37 148.269 143.925 148.307C142.689 148.417 141.898 148.464 141.361 148.199C140.187 147.634 140.235 146.233 140.27 145.214C140.277 144.977 140.287 144.742 140.277 144.526C140.275 144.421 140.265 144.236 140.242 144.181L140.237 144.179Z" fill="#222222"/>
<path d="M71.435 26.9058L65.6406 15.3971L69.6537 13.3755C70.9672 12.715 72.1206 12.5274 73.1088 12.8126C74.0996 13.1003 74.8526 13.7533 75.3655 14.7741C75.8734 15.7799 75.9485 16.7681 75.5882 17.7338C75.2279 18.6996 74.3923 19.5127 73.0788 20.1757L70.4968 21.4767L72.8686 26.1877L71.44 26.9083L71.435 26.9058ZM69.9864 20.4684L72.4608 19.22C73.3215 18.7871 73.8694 18.2442 74.1046 17.5937C74.3398 16.9432 74.2872 16.2802 73.947 15.6022C73.5967 14.9067 73.1013 14.4614 72.4658 14.2687C71.8278 14.0761 71.0973 14.1887 70.2742 14.6015L67.6922 15.905L69.9889 20.4684H69.9864ZM77.8849 23.6558L71.9554 20.0931L73.5141 19.31L79.7364 22.7226L77.8849 23.6533V23.6558Z" fill="#222222"/>
<path d="M86.0466 20.1751L81.8984 7.97588L89.4167 5.41895L89.8595 6.72243L83.8574 8.76397L85.251 12.8621L90.9053 10.9381L91.3481 12.2416L85.6963 14.163L87.1149 18.3412L93.117 16.2997L93.5673 17.6207L86.0491 20.1776L86.0466 20.1751Z" fill="#222222"/>
<path d="M98.0494 3.12458L101.76 2.42905C103.036 2.18887 104.194 2.24141 105.232 2.58667C106.271 2.92943 107.139 3.52738 107.834 4.38053C108.53 5.23117 108.998 6.29948 109.238 7.58044C109.476 8.8514 109.426 10.0098 109.085 11.0531C108.745 12.0989 108.155 12.972 107.311 13.6775C106.471 14.3831 105.41 14.8534 104.132 15.0911L100.421 15.7866L98.0469 3.12458H98.0494ZM99.8833 4.21791L101.74 14.1204L103.876 13.7201C104.832 13.5424 105.613 13.1722 106.221 12.6142C106.829 12.0538 107.249 11.3658 107.484 10.5452C107.714 9.72456 107.742 8.8414 107.564 7.89318C107.386 6.93996 107.039 6.12685 106.528 5.45384C106.013 4.78083 105.375 4.29546 104.604 3.99774C103.836 3.70001 102.976 3.63997 102.02 3.8201L99.8833 4.22041V4.21791Z" fill="#222222"/>
<path d="M116.469 0.352766L118.067 0.295223L118.368 8.51893C118.41 9.72735 118.748 10.5905 119.376 11.1034C120.004 11.6188 120.81 11.859 121.793 11.8214C122.769 11.7864 123.552 11.4887 124.137 10.9308C124.723 10.3703 124.993 9.48716 124.948 8.27875L124.647 0.0575433L126.246 0L126.546 8.22121C126.586 9.30203 126.419 10.2127 126.046 10.9558C125.673 11.6988 125.128 12.2668 124.41 12.6596C123.692 13.0524 122.836 13.265 121.845 13.3025C120.855 13.3376 119.986 13.185 119.238 12.8472C118.49 12.5094 117.9 11.9815 117.472 11.2685C117.042 10.5555 116.807 9.65979 116.766 8.58148L116.469 0.35777V0.352766Z" fill="#222222"/>
<path d="M138.553 13.9083C137.425 13.7857 136.481 13.3979 135.728 12.7424C134.973 12.0869 134.43 11.2288 134.1 10.1705C133.767 9.11466 133.669 7.91876 133.817 6.58525C133.97 5.16418 134.337 3.99329 134.923 3.0726C135.508 2.1519 136.239 1.4864 137.119 1.07609C137.998 0.665781 138.956 0.515667 139.989 0.625751C141.358 0.773362 142.418 1.23371 143.177 2.00679C143.937 2.77988 144.415 3.7306 144.61 4.86145L142.859 5.02157C142.681 4.19845 142.323 3.51793 141.796 2.98253C141.265 2.44713 140.61 2.13689 139.834 2.05433C139.163 1.98177 138.521 2.10687 137.91 2.42961C137.302 2.75236 136.782 3.27525 136.354 4.0008C135.924 4.72384 135.648 5.64704 135.528 6.77039C135.418 7.79116 135.458 8.71186 135.646 9.53998C135.833 10.3656 136.181 11.0336 136.687 11.5515C137.192 12.0694 137.865 12.3696 138.708 12.4622C139.721 12.5698 140.555 12.3846 141.21 11.9068C141.863 11.4264 142.236 10.7459 142.331 9.86022L144.065 10.0479C143.967 10.9661 143.669 11.7316 143.179 12.3396C142.684 12.9501 142.041 13.3904 141.245 13.6631C140.449 13.9358 139.551 14.0159 138.551 13.9083H138.553Z" fill="#222222"/>
<path d="M150 15.4535L153.125 2.9541L160.828 4.88056L160.495 6.21406L154.343 4.6754L153.295 8.87357L159.084 10.3222L158.752 11.6557L152.962 10.2071L151.891 14.4853L158.044 16.024L157.706 17.3775L150.003 15.4485L150 15.4535Z" fill="#222222"/>
<path d="M173.338 17.563C173.471 17.2703 173.686 17.0626 173.986 16.9425C174.289 16.8224 174.594 16.8324 174.907 16.9725C175.217 17.1101 175.435 17.3353 175.557 17.648C175.68 17.9608 175.677 18.2585 175.545 18.5537C175.412 18.849 175.192 19.0441 174.884 19.1467C174.577 19.2493 174.266 19.2292 173.956 19.0891C173.643 18.949 173.428 18.7314 173.316 18.4361C173.201 18.1409 173.208 17.8507 173.336 17.563H173.338Z" fill="#222222"/>
<path d="M186.565 30.4027L193.858 19.7822L197.563 22.3241C198.777 23.1548 199.495 24.0755 199.72 25.0812C199.945 26.087 199.738 27.0602 199.09 28.0009C198.449 28.9316 197.621 29.472 196.603 29.6222C195.582 29.7723 194.466 29.432 193.253 28.5989L190.868 26.9627L187.884 31.3084L186.562 30.4027H186.565ZM191.509 26.0319L193.791 27.6006C194.586 28.146 195.324 28.3662 196.007 28.2586C196.693 28.151 197.248 27.7833 197.676 27.1603C198.119 26.5173 198.271 25.8693 198.131 25.2213C197.994 24.5708 197.543 23.9829 196.783 23.4625L194.396 21.8238L191.506 26.0344L191.509 26.0319ZM192.517 34.4933L192.785 27.5831L194.221 28.5689L194.228 35.6642L192.52 34.4908L192.517 34.4933Z" fill="#222222"/>
<path d="M199.469 39.9399L208.143 30.4102L214.015 35.7567L213.089 36.7725L208.401 32.5042L205.486 35.7067L209.902 39.7247L208.976 40.7405L204.56 36.7224L201.59 39.9824L206.279 44.2506L205.341 45.2814L199.469 39.9374V39.9399Z" fill="#222222"/>
<path d="M219.999 41.9648L221.02 43.1983L214.685 48.4497C213.754 49.2203 213.276 50.0134 213.251 50.824C213.226 51.6346 213.529 52.4202 214.157 53.1783C214.78 53.9314 215.493 54.3717 216.291 54.4918C217.092 54.6144 217.958 54.2917 218.888 53.5186L225.223 48.2671L226.244 49.5005L219.912 54.752C219.081 55.4425 218.255 55.8653 217.44 56.023C216.624 56.1781 215.841 56.093 215.093 55.7628C214.342 55.435 213.652 54.8871 213.019 54.124C212.386 53.361 211.978 52.5804 211.788 51.7798C211.598 50.9792 211.66 50.1911 211.96 49.418C212.263 48.6424 212.831 47.9093 213.662 47.2213L219.997 41.9698L219.999 41.9648Z" fill="#222222"/>
<path d="M222.544 67.4507C222.093 66.7152 221.815 65.9596 221.708 65.184C221.6 64.4084 221.69 63.6754 221.983 62.9848C222.276 62.2943 222.799 61.7114 223.557 61.231L224.367 62.5645C223.852 62.8773 223.509 63.26 223.332 63.7104C223.154 64.1632 223.111 64.6461 223.204 65.159C223.294 65.6719 223.492 66.1722 223.789 66.6626C224.112 67.193 224.48 67.6033 224.885 67.891C225.293 68.1788 225.701 68.3464 226.109 68.3914C226.517 68.4339 226.887 68.3539 227.22 68.1537C227.687 67.8685 227.978 67.4932 228.09 67.0329C228.205 66.57 228.183 66.0021 228.023 65.3316L227.52 62.9698C227.292 61.859 227.247 60.9433 227.38 60.2202C227.517 59.4972 227.965 58.9017 228.723 58.4414C229.576 57.921 230.472 57.8259 231.408 58.1562C232.346 58.4839 233.184 59.2545 233.92 60.4629C234.603 61.5838 234.88 62.6171 234.745 63.5628C234.615 64.5085 234.14 65.2916 233.327 65.917L232.504 64.5685C232.959 64.1707 233.209 63.6929 233.257 63.1299C233.302 62.5695 233.109 61.9315 232.674 61.221C232.233 60.4955 231.728 60.0326 231.16 59.8249C230.595 59.6173 230.064 59.6623 229.574 59.9626C229.174 60.2077 228.928 60.5305 228.848 60.9283C228.766 61.3261 228.796 61.854 228.941 62.512L229.541 65.2691C229.759 66.2173 229.772 67.0654 229.579 67.811C229.386 68.559 228.913 69.162 228.158 69.6198C227.572 69.9751 226.949 70.1402 226.289 70.1177C225.623 70.0952 224.968 69.865 224.317 69.4272C223.667 68.9919 223.071 68.3314 222.534 67.4507H222.544Z" fill="#222222"/>
<path d="M228.398 77.6361L240.212 72.4922L243.382 79.7727L242.119 80.3206L239.589 74.5087L235.621 76.235L238.003 81.7091L236.742 82.2596L234.36 76.7854L230.315 78.5443L232.847 84.3586L231.568 84.9141L228.398 77.6336V77.6361Z" fill="#222222"/>
<path d="M240.962 97.4407C241.275 97.3682 241.573 97.4132 241.851 97.5783C242.128 97.746 242.309 97.9936 242.386 98.3264C242.464 98.6592 242.419 98.9694 242.248 99.2546C242.076 99.5423 241.836 99.7224 241.523 99.7975C241.213 99.8726 240.922 99.8175 240.652 99.6349C240.385 99.4522 240.212 99.1946 240.132 98.8643C240.054 98.5316 240.094 98.2288 240.259 97.9586C240.422 97.6884 240.66 97.5158 240.965 97.4432L240.962 97.4407Z" fill="#222222"/>
<path d="M238.828 115.687L251.695 114.984L251.941 119.47C252.021 120.939 251.733 122.07 251.072 122.86C250.412 123.653 249.514 124.081 248.375 124.144C247.25 124.206 246.314 123.876 245.573 123.163C244.833 122.445 244.422 121.354 244.34 119.886L244.182 116.996L238.918 117.284L238.831 115.685L238.828 115.687ZM239.221 122.9L244.86 118.895L244.955 120.634L239.336 124.969L239.223 122.9H239.221ZM245.308 116.936L245.461 119.7C245.513 120.664 245.788 121.384 246.291 121.86C246.792 122.335 247.422 122.553 248.18 122.513C248.958 122.47 249.564 122.195 249.994 121.687C250.427 121.182 250.617 120.466 250.567 119.545L250.409 116.656L245.308 116.933V116.936Z" fill="#222222"/>
<path d="M239.156 131.759L252.001 132.803L251.355 140.716L249.987 140.604L250.502 134.284L246.186 133.933L245.704 139.885L244.333 139.775L244.815 133.823L240.42 133.466L239.907 139.783L238.516 139.67L239.159 131.757L239.156 131.759Z" fill="#222222"/>
<path d="M237.439 146.709L250.031 149.439L249.153 153.489C248.856 154.873 248.275 155.856 247.419 156.436C246.564 157.017 245.535 157.177 244.34 156.917C243.156 156.659 242.298 156.091 241.765 155.208C241.235 154.327 241.117 153.194 241.417 151.81L241.953 149.343L237.102 148.293L237.444 146.709H237.439ZM243.311 149.641L242.776 152.108C242.586 152.984 242.666 153.697 243.016 154.245C243.364 154.795 243.922 155.15 244.682 155.315C245.458 155.483 246.126 155.393 246.684 155.043C247.244 154.69 247.617 154.077 247.807 153.204L248.343 150.737L243.311 149.646V149.641Z" fill="#222222"/>
<path d="M234.533 158.978L245.194 167.464L244.543 169.3L230.953 169.073L231.516 167.489L234.991 167.567L236.705 162.733L233.968 160.566L234.533 158.98V158.978ZM237.751 163.536L236.307 167.597L243.042 167.699L237.748 163.536H237.751Z" fill="#222222"/>
<path d="M225.099 181.057L231.992 180.481L231.186 182.027L224.141 182.893L225.099 181.054V181.057ZM228.434 174.649L239.863 180.601L237.786 184.587C237.108 185.89 236.282 186.716 235.312 187.064C234.341 187.409 233.35 187.319 232.337 186.791C231.336 186.271 230.701 185.513 230.428 184.519C230.155 183.524 230.358 182.375 231.038 181.072L232.374 178.507L227.698 176.07L228.439 174.652L228.434 174.649ZM233.373 179.028L232.094 181.485C231.649 182.34 231.521 183.101 231.711 183.766C231.899 184.432 232.332 184.94 233.005 185.29C233.695 185.65 234.358 185.723 234.986 185.508C235.617 185.29 236.142 184.772 236.57 183.954L237.909 181.387L233.378 179.028H233.373Z" fill="#222222"/>
<path d="M231.044 193.651L232.167 194.442L226.403 202.653L225.277 201.862L227.911 198.109L228.009 198.615L218.289 191.787L219.207 190.479L228.93 197.304L228.419 197.386L231.044 193.651Z" fill="#222222"/>
<path d="M222.994 206.954L221.696 208.383L214.58 206.904L214.856 206.601L216.96 213.591L215.676 215.003L213.194 206.449L209.281 202.886L210.37 201.688L214.288 205.25L222.994 206.959V206.954Z" fill="#222222"/>
<path d="M199.52 219.053C199.717 219.305 199.797 219.593 199.76 219.916C199.725 220.239 199.572 220.504 199.302 220.714C199.032 220.924 198.732 221.009 198.399 220.972C198.066 220.934 197.803 220.789 197.606 220.536C197.408 220.281 197.338 219.996 197.393 219.676C197.451 219.358 197.611 219.09 197.881 218.883C198.151 218.672 198.446 218.587 198.759 218.625C199.072 218.662 199.327 218.805 199.52 219.055V219.053Z" fill="#222222"/>
<path d="M175.581 228.017L181.558 231.497L180.009 232.303L173.742 228.975L175.579 228.017H175.581ZM181.986 224.68L187.938 236.108L183.952 238.185C182.649 238.863 181.501 239.066 180.507 238.795C179.512 238.523 178.751 237.88 178.223 236.866C177.703 235.866 177.615 234.88 177.963 233.909C178.308 232.938 179.136 232.113 180.437 231.432L183.004 230.096L180.567 225.42L181.986 224.68ZM183.522 231.097L181.065 232.378C180.21 232.823 179.669 233.374 179.442 234.027C179.216 234.682 179.279 235.345 179.629 236.018C179.989 236.709 180.49 237.149 181.128 237.332C181.768 237.514 182.496 237.394 183.314 236.966L185.879 235.63L183.52 231.1L183.522 231.097Z" fill="#222222"/>
<path d="M167.481 231.603L171.799 243.742L164.318 246.404L163.858 245.108L169.83 242.984L168.379 238.906L162.755 240.907L162.294 239.614L167.919 237.612L166.44 233.456L160.468 235.583L160 234.27L167.481 231.608V231.603Z" fill="#222222"/>
<path d="M155.749 248.815L152.046 249.563C150.773 249.82 149.614 249.783 148.571 249.455C147.525 249.125 146.652 248.539 145.944 247.699C145.239 246.858 144.756 245.797 144.496 244.519C144.243 243.25 144.275 242.092 144.598 241.044C144.926 239.993 145.504 239.11 146.335 238.397C147.165 237.681 148.218 237.193 149.494 236.936L153.195 236.188L155.749 248.817V248.815ZM153.9 247.744L151.904 237.869L149.772 238.299C148.821 238.492 148.043 238.872 147.443 239.44C146.842 240.008 146.432 240.703 146.209 241.527C145.989 242.35 145.974 243.233 146.164 244.179C146.357 245.129 146.715 245.937 147.235 246.605C147.756 247.271 148.404 247.746 149.179 248.034C149.95 248.322 150.813 248.367 151.766 248.177L153.898 247.746L153.9 247.744Z" fill="#222222"/>
<path d="M137.32 251.846L135.722 251.924L135.311 243.708C135.251 242.499 134.903 241.641 134.27 241.136C133.637 240.63 132.827 240.403 131.844 240.45C130.868 240.498 130.09 240.805 129.512 241.373C128.934 241.939 128.674 242.827 128.734 244.035L129.144 252.254L127.545 252.334L127.135 244.115C127.082 243.037 127.238 242.124 127.6 241.376C127.963 240.63 128.501 240.052 129.214 239.652C129.925 239.249 130.778 239.024 131.769 238.974C132.759 238.926 133.63 239.064 134.383 239.394C135.134 239.722 135.732 240.242 136.169 240.948C136.61 241.656 136.855 242.549 136.91 243.627L137.32 251.846Z" fill="#222222"/>
<path d="M115.078 238.588C116.209 238.695 117.155 239.071 117.92 239.716C118.683 240.362 119.239 241.21 119.586 242.263C119.934 243.316 120.044 244.51 119.919 245.846C119.787 247.269 119.431 248.443 118.861 249.373C118.29 250.304 117.565 250.977 116.692 251.4C115.819 251.825 114.863 251.985 113.827 251.89C112.458 251.763 111.39 251.315 110.617 250.552C109.849 249.789 109.359 248.845 109.148 247.72L110.897 247.532C111.087 248.353 111.453 249.028 111.988 249.559C112.526 250.086 113.184 250.387 113.96 250.459C114.635 250.522 115.273 250.389 115.879 250.059C116.484 249.726 116.994 249.196 117.412 248.465C117.833 247.735 118.093 246.809 118.2 245.686C118.298 244.665 118.243 243.742 118.043 242.921C117.84 242.098 117.485 241.432 116.972 240.925C116.459 240.417 115.781 240.124 114.935 240.044C113.922 239.949 113.091 240.146 112.443 240.634C111.795 241.125 111.433 241.813 111.348 242.696L109.611 242.533C109.699 241.613 109.982 240.844 110.467 240.229C110.952 239.611 111.588 239.161 112.381 238.878C113.174 238.595 114.07 238.5 115.07 238.595L115.078 238.588Z" fill="#222222"/>
<path d="M103.566 237.196L100.611 249.738L92.8828 247.917L93.198 246.578L99.3702 248.035L100.361 243.821L94.5516 242.45L94.8668 241.112L100.679 242.483L101.69 238.187L95.5173 236.734L95.8376 235.375L103.566 237.196Z" fill="#222222"/>
<path d="M80.2314 235.413C80.1038 235.708 79.8887 235.918 79.591 236.043C79.2907 236.166 78.983 236.161 78.6703 236.026C78.3575 235.891 78.1349 235.668 78.0098 235.36C77.8822 235.052 77.8822 234.75 78.0098 234.454C78.1374 234.159 78.3525 233.959 78.6602 233.854C78.968 233.746 79.2757 233.761 79.591 233.899C79.9037 234.034 80.1214 234.247 80.2415 234.542C80.3615 234.835 80.359 235.127 80.2339 235.415L80.2314 235.413Z" fill="#222222"/>
<path d="M66.822 222.746L59.674 233.466L55.9337 230.974C54.7102 230.159 53.9797 229.251 53.7395 228.245C53.4993 227.244 53.697 226.266 54.3299 225.315C54.9554 224.377 55.7785 223.824 56.7943 223.661C57.8126 223.499 58.936 223.824 60.1569 224.64L62.5637 226.243L65.4884 221.858L66.8195 222.743L66.822 222.746ZM61.9382 227.184L59.634 225.648C58.8334 225.112 58.0903 224.902 57.4073 225.02C56.7243 225.137 56.1738 225.51 55.7535 226.141C55.3207 226.791 55.1781 227.439 55.3257 228.087C55.4733 228.735 55.9312 229.316 56.6992 229.829L59.1061 231.432L61.9407 227.182L61.9382 227.184ZM60.8124 218.74L60.6423 225.655L59.1886 224.687L59.0886 217.592L60.8124 218.743V218.74Z" fill="#222222"/>
<path d="M53.7879 213.383L45.2414 223.028L39.2969 217.764L40.2076 216.733L44.9537 220.936L47.8259 217.696L43.3575 213.736L44.2682 212.708L48.7366 216.666L51.6613 213.366L46.9152 209.162L47.8409 208.119L53.7854 213.383H53.7879Z" fill="#222222"/>
<path d="M33.2173 211.634L32.179 210.416L38.4438 205.082C39.3645 204.296 39.8324 203.498 39.8474 202.685C39.8624 201.872 39.5496 201.094 38.9092 200.343C38.2737 199.598 37.5581 199.17 36.7575 199.057C35.9569 198.945 35.0938 199.28 34.1756 200.066L27.9108 205.402L26.875 204.184L33.1373 198.847C33.9579 198.147 34.776 197.714 35.5916 197.544C36.4073 197.376 37.1878 197.451 37.9434 197.771C38.694 198.089 39.3945 198.627 40.0375 199.383C40.6805 200.138 41.1008 200.914 41.301 201.709C41.4986 202.505 41.4511 203.296 41.1584 204.074C40.8656 204.854 40.3077 205.592 39.4846 206.295L33.2223 211.632L33.2173 211.634Z" fill="#222222"/>
<path d="M30.3628 186.226C30.8232 186.956 31.1109 187.707 31.2285 188.48C31.3486 189.256 31.266 189.989 30.9858 190.682C30.7031 191.377 30.1852 191.97 29.4346 192.456L28.604 191.137C29.1144 190.817 29.4521 190.429 29.6222 189.974C29.7949 189.518 29.8299 189.038 29.7298 188.525C29.6323 188.015 29.4296 187.514 29.1219 187.029C28.7916 186.501 28.4213 186.098 28.0085 185.816C27.5957 185.533 27.1879 185.373 26.7776 185.335C26.3698 185.298 26.002 185.38 25.6717 185.588C25.2064 185.878 24.9237 186.256 24.8136 186.719C24.706 187.184 24.736 187.749 24.9062 188.417L25.4416 190.769C25.6843 191.875 25.7443 192.793 25.6192 193.519C25.4941 194.244 25.0538 194.845 24.3007 195.318C23.4551 195.851 22.5619 195.958 21.6187 195.64C20.6779 195.323 19.8298 194.567 19.0742 193.369C18.3762 192.258 18.086 191.227 18.2061 190.279C18.3236 189.333 18.7865 188.54 19.5896 187.905L20.4303 189.243C19.9799 189.648 19.7372 190.129 19.6997 190.692C19.6622 191.255 19.8623 191.888 20.3077 192.593C20.7605 193.311 21.2709 193.772 21.8388 193.969C22.4093 194.169 22.9372 194.117 23.4225 193.809C23.8228 193.559 24.0605 193.234 24.1356 192.833C24.2131 192.433 24.1731 191.908 24.0205 191.252L23.38 188.503C23.1498 187.557 23.1273 186.711 23.3099 185.961C23.4926 185.21 23.9579 184.602 24.7035 184.132C25.2839 183.769 25.9044 183.591 26.5674 183.606C27.2304 183.621 27.8909 183.842 28.5489 184.269C29.2044 184.697 29.8074 185.348 30.3578 186.221L30.3628 186.226Z" fill="#222222"/>
<path d="M24.3708 176.136L12.6294 181.445L9.35938 174.209L10.6128 173.644L13.2248 179.421L17.1678 177.637L14.7084 172.195L15.9619 171.63L18.4213 177.072L22.4418 175.253L19.8298 169.476L21.0983 168.9L24.3708 176.136Z" fill="#222222"/>
<path d="M11.5246 156.498C11.2118 156.576 10.9166 156.536 10.6339 156.373C10.3537 156.21 10.171 155.965 10.0885 155.632C10.0059 155.302 10.0459 154.992 10.2111 154.702C10.3787 154.411 10.6164 154.226 10.9291 154.149C11.2394 154.071 11.5296 154.121 11.8023 154.296C12.0725 154.474 12.2526 154.732 12.3352 155.062C12.4178 155.395 12.3802 155.697 12.2201 155.97C12.0625 156.243 11.8273 156.418 11.5246 156.495V156.498Z" fill="#222222"/>
<path d="M13.3989 138.179L0.541624 139.055L0.238894 134.574C0.138817 133.105 0.411525 131.972 1.05952 131.171C1.70751 130.368 2.60319 129.928 3.74156 129.853C4.86742 129.775 5.80563 130.091 6.5562 130.796C7.30677 131.502 7.7321 132.59 7.83217 134.056L8.02982 136.941L13.2888 136.583L13.3989 138.179ZM6.90397 137.018L6.71382 134.254C6.65127 133.293 6.36356 132.575 5.85317 132.107C5.34278 131.639 4.7123 131.429 3.95422 131.482C3.17613 131.534 2.57567 131.817 2.15035 132.33C1.72502 132.843 1.54489 133.558 1.60743 134.481L1.80509 137.366L6.90397 137.018ZM12.9085 130.974L7.32429 135.057L7.2067 133.318L12.7659 128.907L12.9085 130.974Z" fill="#222222"/>
<path d="M12.8548 122.152L0 121.286L0.532905 113.365L1.90395 113.458L1.47863 119.783L5.79691 120.075L6.19722 114.118L7.57076 114.211L7.17046 120.168L11.5713 120.466L11.9966 114.138L13.3877 114.231L12.8548 122.154V122.152Z" fill="#222222"/>
<path d="M14.3718 107.191L1.74219 104.637L2.56281 100.574C2.84303 99.185 3.40846 98.1967 4.2566 97.6038C5.10725 97.0108 6.13053 96.8357 7.33144 97.0784C8.51985 97.3186 9.383 97.8765 9.92842 98.7496C10.4738 99.6253 10.6064 100.756 10.3262 102.142L9.82584 104.617L14.692 105.6L14.3718 107.189V107.191ZM8.4573 104.341L8.95768 101.869C9.13532 100.991 9.04525 100.281 8.68747 99.7379C8.3297 99.1925 7.76928 98.8447 7.00369 98.6921C6.2256 98.5345 5.56009 98.6346 5.00717 98.9948C4.45425 99.3551 4.08647 99.9731 3.90884 100.851L3.40846 103.323L8.4548 104.344L8.4573 104.341Z" fill="#222222"/>
<path d="M17.096 94.8585L6.32031 86.5222L6.94579 84.6758L20.5411 84.7158L20.0007 86.3095L16.5231 86.2795L14.8743 91.1357L17.6389 93.2648L17.0985 94.8585H17.096ZM13.8185 90.3451L15.2021 86.2645L8.46695 86.257L13.8185 90.3451Z" fill="#222222"/>
<path d="M22.9853 79.0869L11.4766 73.2925L13.4981 69.2795C14.1586 67.966 14.9717 67.1304 15.94 66.7701C16.9057 66.4123 17.899 66.4874 18.9197 67.0028C19.928 67.5107 20.5735 68.2587 20.8587 69.2495C21.1464 70.2402 20.9588 71.3911 20.2983 72.7046L18.9948 75.2865L23.7059 77.6583L22.9853 79.0894V79.0869ZM17.9865 74.7786L19.2325 72.3068C19.6678 71.4461 19.7854 70.6831 19.5852 70.0201C19.3876 69.357 18.9498 68.8567 18.2692 68.5139C17.5737 68.1637 16.9132 68.1011 16.2852 68.3263C15.6597 68.5489 15.1394 69.0768 14.724 69.9L13.423 72.4819L17.984 74.7786H17.9865ZM26.2328 72.6345L19.3476 73.305L20.1332 71.7464L27.166 70.7856L26.2328 72.6345Z" fill="#222222"/>
<path d="M20.1359 60.1132L19 59.3376L24.6543 51.0488L25.7902 51.8244L23.2082 55.6123L23.1056 55.1069L32.9181 61.8019L32.0149 63.1254L22.2024 56.4304L22.7103 56.3428L20.1384 60.1132H20.1359Z" fill="#222222"/>
<path d="M27.9766 46.7374L29.255 45.2938L36.3905 46.6749L36.1178 46.9826L33.9211 40.0223L35.1845 38.5938L37.784 47.1127L41.747 50.6203L40.6737 51.8337L36.7082 48.3261L27.9791 46.7374H27.9766Z" fill="#222222"/>
<path d="M51.2821 34.3154C51.082 34.0627 50.9994 33.7775 51.0294 33.4548C51.062 33.132 51.2096 32.8643 51.4773 32.6517C51.745 32.439 52.0427 32.3489 52.378 32.3815C52.7082 32.414 52.9759 32.5541 53.1761 32.8068C53.3762 33.0595 53.4513 33.3447 53.3987 33.6649C53.3487 33.9852 53.1911 34.2529 52.9234 34.4655C52.6557 34.6782 52.3629 34.7683 52.0502 34.7358C51.7375 34.7032 51.4798 34.5631 51.2821 34.3179V34.3154Z" fill="#222222"/>
</svg>
