<svg width="105" height="105" viewBox="0 0 105 105" fill="none" xmlns="http://www.w3.org/2000/svg">
<path d="M52.2461 0C81.1007 0 104.492 23.3915 104.492 52.2461C104.492 81.1008 81.1008 104.492 52.2461 104.492C23.3914 104.492 0 81.1008 0 52.2461C0.000200557 23.3915 23.3915 0 52.2461 0ZM68.2529 22.6621C61.7981 22.6622 55.8965 26.2782 52.5 32.0059C49.1035 26.2781 43.2019 22.6621 36.7471 22.6621C31.7106 22.6622 26.9878 24.8028 23.4492 28.6904C19.9694 32.5137 18.0342 37.5953 18 42.998C17.9709 47.641 19.7841 52.6193 23.3887 57.7949C26.1743 61.7948 30.0467 65.9444 34.8975 70.1279C43.0811 77.186 51.1486 81.8708 51.4893 82.0674C51.8019 82.248 52.151 82.3379 52.5 82.3379C52.857 82.3379 53.2079 82.2438 53.5166 82.0645C53.8543 81.8681 61.8646 77.1837 70.0186 70.126C74.8502 65.9437 78.7165 61.7956 81.5107 57.7979C85.1233 52.6293 86.9706 47.6584 87 43.0234C87.0356 37.3899 84.8622 31.9509 81.0371 28.1016C77.5515 24.5939 73.0112 22.6621 68.2529 22.6621Z" fill="#CBBBDF"/>
</svg>
