<svg width="105" height="105" viewBox="0 0 105 105" fill="none" xmlns="http://www.w3.org/2000/svg">
<path d="M52.2461 0C81.1007 0 104.492 23.3915 104.492 52.2461C104.492 81.1008 81.1008 104.492 52.2461 104.492C23.3914 104.492 0 81.1008 0 52.2461C0.000200557 23.3915 23.3915 0 52.2461 0ZM75.2002 17.0039C56.3167 20.8816 38.7765 27.2986 27.6396 44.5264C22.276 52.8238 21.5028 62.0369 25.6133 71.1348C27.081 74.3807 27.4167 77.2899 26.2959 80.4404C25.5082 82.6554 25.5299 84.6155 27.168 86.3535C27.8977 87.1284 28.9011 87.2114 29.7852 86.5762C31.6995 85.2022 31.0607 83.1034 31.1895 81.2314C32.598 60.7308 46.1723 48.0957 60.4023 35.917C61.6078 34.8852 63.241 34.4877 64.3594 36.3467C65.3049 37.9184 64.2393 38.7679 63.2148 39.751C58.8943 43.8997 54.5329 48.0146 50.3701 52.3203C44.6642 58.2212 40.4043 65.1172 37.4121 72.7539C35.0015 78.9081 37.5018 81.9211 44.1299 80.8369C50.5249 79.7898 56.2111 77.2071 61.2197 72.9258C76.9278 59.4999 79.5278 40.9957 80.9746 22.0703C81.2531 18.4172 78.7553 16.9942 75.1992 17L75.2002 17.0039Z" fill="#A1CDAD"/>
</svg>
