<svg width="105" height="105" viewBox="0 0 105 105" fill="none" xmlns="http://www.w3.org/2000/svg">
<path d="M52.2461 0C81.1007 0 104.492 23.3915 104.492 52.2461C104.492 81.1008 81.1008 104.492 52.2461 104.492C23.3914 104.492 0 81.1008 0 52.2461C0.000200557 23.3915 23.3915 0 52.2461 0ZM54.25 41.0918C53.3772 39.5671 51.1679 39.5972 50.3359 41.1445L37.5264 62.8828L27.2266 45.543C26.134 43.482 22.2452 44.5861 22.2451 46.9189L23.0107 75.2988C23.0109 75.7837 23.4047 76.1768 23.8896 76.1768H80.6025C81.0875 76.1768 81.4803 75.7837 81.4805 75.2988L82.2451 46.9189C82.245 44.5531 78.2874 44.0379 77.2373 46.1582L67.9189 62.8828L54.25 41.0918ZM24.8125 33.3418C22.6692 33.3418 20.9316 35.0793 20.9316 37.2227C20.9318 39.3659 22.6693 41.1035 24.8125 41.1035C26.9557 41.1035 28.6932 39.3659 28.6934 37.2227C28.6934 35.0793 26.9558 33.3418 24.8125 33.3418ZM79.6797 33.3418C77.5364 33.3418 75.7988 35.0793 75.7988 37.2227C75.799 39.3659 77.5365 41.1035 79.6797 41.1035C81.8229 41.1035 83.5604 39.3659 83.5605 37.2227C83.5605 35.0793 81.823 33.3418 79.6797 33.3418ZM55.9609 31.0723C55.3399 29.0211 53.1743 27.8617 51.123 28.4824C49.0717 29.1034 47.9113 31.2699 48.5322 33.3213C49.1532 35.3725 51.3198 36.5319 53.3711 35.9111C55.4225 35.2901 56.582 33.1237 55.9609 31.0723Z" fill="#E9C34A"/>
</svg>
