<svg width="105" height="105" viewBox="0 0 105 105" fill="none" xmlns="http://www.w3.org/2000/svg">
<path d="M52.2461 0C81.1007 0 104.492 23.3915 104.492 52.2461C104.492 81.1008 81.1008 104.492 52.2461 104.492C23.3914 104.492 0 81.1008 0 52.2461C0.000200557 23.3915 23.3915 0 52.2461 0ZM30.0244 71.417C25.6527 70.1327 23.3601 71.341 22.6533 75.8115C22.3838 77.5131 21.165 79.2289 22.9453 80.7695C24.5723 82.1779 26.3762 82.278 28.3799 81.5703C33.9748 79.5953 39.5989 77.7029 45.2109 75.7773C45.2082 75.4887 45.2058 75.1997 45.2031 74.9111C40.1364 73.7708 34.9965 72.8775 30.0244 71.417ZM33.8467 57.9141C32.235 57.6259 29.7746 55.3307 28.6895 58.917C28.0855 60.9145 27.2449 62.8407 26.6572 64.8418C26.3877 65.7609 27.2894 66.1814 27.9844 66.3271C36.1781 68.0413 44.3822 69.7049 52.8301 71.4326L52.8291 71.4316C55.6531 70.5539 58.6604 69.6586 61.6367 68.6738C62.9851 68.227 65.0111 68.218 64.9834 66.3057C64.9509 64.095 62.9931 63.6221 61.1533 63.2588C52.0537 61.461 42.976 59.5437 33.8467 57.9141ZM70.9443 56.8701C69.5193 56.5698 67.1785 56.5713 67.3809 58.4082C67.7414 61.6702 71.2257 61.0719 73.4404 61.8867C74.9214 62.4317 75.9544 61.3456 76.415 59.6836C75.5721 57.038 72.9976 57.3027 70.9443 56.8701ZM36.0947 37.5811C34.5218 41.8673 33.0434 46.042 31.4453 50.1699C30.8856 51.6142 31.0663 52.3839 32.6895 52.6924C40.189 54.117 47.6826 55.5788 55.083 57.0088C48.7184 50.4966 42.5342 44.1696 36.0947 37.5811ZM74.1328 46.1094C72.3471 45.8962 71.0717 46.7585 71.2178 48.5645C71.4873 51.9056 74.5888 50.5621 76.0635 51.3994C78.1709 51.3697 80.239 50.7584 79.9082 48.9229C79.3789 45.9808 76.3988 46.38 74.1328 46.1094ZM58.0342 39.9287C56.2178 39.98 53.1432 39.6515 52.7646 42.7354C52.3852 45.8229 55.0213 48.9585 57.7363 48.9189C59.4454 48.6609 62.0524 48.8402 61.2646 45.9229C60.6769 43.7455 62.2293 39.81 58.0342 39.9287ZM79.2959 37.1738C77.9429 37.2215 76.9433 37.9696 76.9189 39.2646C76.8876 40.9705 78.4358 41.2498 79.7139 41.4297C81.1136 41.6266 81.8906 40.8374 81.9961 39.2402C81.7473 37.8787 80.847 37.12 79.2959 37.1738ZM41.6143 27.5352C40.0207 27.8418 39.6182 29.0885 39.7227 30.5605C39.8912 32.9446 43.4214 37.2317 45.0928 37.0059C46.3971 36.8287 46.6524 35.8616 46.5244 33.7598H46.5254C46.4387 31.8433 43.3062 27.2106 41.6143 27.5352ZM74.3027 24.2715C72.2512 23.5619 70.0611 20.187 67.8779 23.3779C66.2482 25.7612 65.5509 28.798 64.5566 31.5859C63.9797 33.2039 64.695 34.1418 66.5537 34.2461V34.2451C69.7634 32.9859 72.1069 30.4913 74.4414 28.0137C75.6087 26.7744 76.8464 25.1519 74.3027 24.2715ZM53.8389 22.002C51.7955 22.0703 51.8265 24.1902 51.6436 25.8486C51.8977 27.5106 51.6103 29.7803 54.1709 29.6924C56.4641 29.6132 56.1845 27.5288 56.207 25.9414C56.2332 24.1518 56.2912 21.9194 53.8389 22.002Z" fill="#EAC249"/>
</svg>
