<svg width="105" height="105" viewBox="0 0 105 105" fill="none" xmlns="http://www.w3.org/2000/svg">
<path d="M52.2461 0C81.1007 0 104.492 23.3915 104.492 52.2461C104.492 81.1008 81.1008 104.492 52.2461 104.492C23.3914 104.492 0 81.1008 0 52.2461C0.000200557 23.3915 23.3915 0 52.2461 0ZM28.8789 80.0127C28.7275 80.3798 28.7046 80.7874 28.8145 81.1689C28.9244 81.5506 29.1606 81.8845 29.4844 82.1152C29.7922 82.3346 37.1907 87.4863 51.7461 87.4863C66.3015 87.4863 73.7 82.3346 74.0078 82.1152C74.3316 81.8846 74.5678 81.5506 74.6777 81.1689C74.7876 80.7874 74.7647 80.3797 74.6133 80.0127L72.2314 74.2383C66.4662 75.0833 61.3524 75.4121 56.8877 75.4121C49.9216 75.4121 44.5321 74.6123 40.6904 73.7217C37.0761 72.8837 34.39 71.8782 32.5713 71.0586L28.8789 80.0127ZM33.915 67.8008C35.5752 68.5569 38.1675 69.5418 41.7471 70.3525C47.5925 71.6765 57.2442 72.7716 70.8467 70.8809L67.2627 62.1895C63.4848 62.5823 60.0102 62.7519 56.833 62.752C48.1106 62.752 41.6125 61.4802 37.0996 60.0801L33.915 67.8008ZM38.4473 56.8125C44.1268 58.5315 53.0712 60.0004 65.8623 58.793L62.0762 49.6123C61.9699 49.6456 61.859 49.6697 61.7441 49.6826C59.2938 49.9586 57.0541 50.0771 55.0156 50.0771C49.0733 50.0771 44.8392 49.0721 42.0625 48.0449L38.4473 56.8125ZM51.7461 27.4268C51.3969 27.4268 51.0557 27.5306 50.7656 27.7246C50.4755 27.9187 50.2491 28.1942 50.1162 28.5166L43.4062 44.7881C46.2177 45.8046 51.8676 47.1533 60.6914 46.2549L53.376 28.5166C53.2431 28.1942 53.0167 27.9187 52.7266 27.7246C52.4364 27.5306 52.0953 27.4268 51.7461 27.4268ZM51.5996 18.9199C49.9143 18.9199 48.5479 20.2843 48.5479 21.9668C48.5481 23.6491 49.9144 25.0127 51.5996 25.0127C53.2846 25.0125 54.6502 23.649 54.6504 21.9668C54.6504 20.2844 53.2847 18.9201 51.5996 18.9199Z" fill="url(#paint0_linear_12368_18357)"/>
<defs>
<linearGradient id="paint0_linear_12368_18357" x1="83.25" y1="6.91992" x2="4.25" y2="108.42" gradientUnits="userSpaceOnUse">
<stop stop-color="#7EC4C6"/>
<stop offset="0.428174" stop-color="#D7B1A1"/>
<stop offset="0.697196" stop-color="#F4B56A"/>
<stop offset="1" stop-color="#F7BB5B"/>
</linearGradient>
</defs>
</svg>
