<svg width="105" height="105" viewBox="0 0 105 105" fill="none" xmlns="http://www.w3.org/2000/svg">
<path d="M52.2461 0C81.1007 0 104.492 23.3915 104.492 52.2461C104.492 81.1008 81.1008 104.492 52.2461 104.492C23.3914 104.492 0 81.1008 0 52.2461C0.000200557 23.3915 23.3915 0 52.2461 0ZM52.249 17.9199C42.3572 17.9199 34.3086 25.9686 34.3086 35.8604C34.3088 45.9783 43.0051 56.2263 49.5049 58.7324L48.5117 59.7227C48.1198 60.1174 48.0013 60.7141 48.2139 61.2275C48.3182 61.4796 48.4949 61.695 48.7217 61.8467C48.9486 61.9984 49.2153 62.08 49.4883 62.0801H51.3291C55.4498 71.9112 53.275 74.1741 50.2666 77.2461C48.4202 79.1339 46.3279 81.2702 45.3867 85.2197C45.2074 85.9594 45.6657 86.7051 46.4082 86.8818C46.5129 86.9081 46.6206 86.9205 46.7285 86.9199C47.355 86.9199 47.9213 86.4951 48.0703 85.8604C48.8375 82.6562 50.5677 80.8871 52.2402 79.1787C56.0076 75.3285 58.2208 71.9692 54.3154 62.0801H55.0088C55.2817 62.08 55.5485 61.9993 55.7754 61.8477C56.0024 61.6959 56.1799 61.4799 56.2842 61.2275C56.4967 60.7142 56.3772 60.1174 55.9854 59.7227L54.9922 58.7324C61.492 56.2262 70.1882 45.9784 70.1885 35.8604C70.1885 25.9687 62.1406 17.9202 52.249 17.9199Z" fill="#F38B71"/>
</svg>
