<svg width="105" height="105" viewBox="0 0 105 105" fill="none" xmlns="http://www.w3.org/2000/svg">
<path d="M52.2461 0C81.1007 0 104.492 23.3915 104.492 52.2461C104.492 81.1008 81.1008 104.492 52.2461 104.492C23.3914 104.492 0 81.1008 0 52.2461C0.000200557 23.3915 23.3915 0 52.2461 0ZM43.8193 26C41.2661 26 38.7837 27.2766 37.3652 29.4043L33.6064 35.0781H26.7979C25.7725 35.0752 24.7565 35.275 23.8086 35.666C22.8608 36.057 21.9994 36.6315 21.2744 37.3564C20.5494 38.0814 19.975 38.9428 19.584 39.8906C19.193 40.8385 18.9931 41.8545 18.9961 42.8799V70.3984C18.9931 71.4238 19.193 72.4398 19.584 73.3877C19.975 74.3355 20.5494 75.1969 21.2744 75.9219C21.9994 76.6469 22.8608 77.2213 23.8086 77.6123C24.7565 78.0033 25.7725 78.2032 26.7979 78.2002H76.4443C77.4697 78.2032 78.4857 78.0033 79.4336 77.6123C80.3814 77.2213 81.2428 76.6469 81.9678 75.9219C82.6928 75.1969 83.2672 74.3355 83.6582 73.3877C84.0492 72.4398 84.249 71.4238 84.2461 70.3984V42.8799C84.249 41.8545 84.0492 40.8385 83.6582 39.8906C83.2672 38.9428 82.6928 38.0814 81.9678 37.3564C81.2428 36.6315 80.3814 36.057 79.4336 35.666C78.4857 35.275 77.4697 35.0752 76.4443 35.0781H69.6357L65.877 29.4043C64.4585 27.2766 61.9761 26 59.4229 26H43.8193ZM51.6211 36.71C61.3377 36.71 69.21 44.5823 69.21 54.2988C69.2099 63.9444 61.3376 71.8164 51.6211 71.8164C41.9045 71.8164 34.0322 63.9441 34.0322 54.2275C34.0323 44.5111 41.9046 36.71 51.6211 36.71ZM51.6191 44.5107C46.2292 44.511 41.8321 48.9078 41.832 54.2979C41.832 59.6879 46.2291 64.0144 51.6191 64.0146C57.0094 64.0146 61.4072 59.6168 61.4072 54.2266C61.407 48.8366 57.0092 44.5107 51.6191 44.5107Z" fill="#63CECE"/>
</svg>
