<svg width="105" height="105" viewBox="0 0 105 105" fill="none" xmlns="http://www.w3.org/2000/svg">
<path d="M52.2461 0C81.1007 0 104.492 23.3915 104.492 52.2461C104.492 81.1008 81.1008 104.492 52.2461 104.492C23.3914 104.492 0 81.1008 0 52.2461C0.000200557 23.3915 23.3915 0 52.2461 0ZM44.2422 63.3594C43.7331 63.3594 43.2389 63.5346 42.8438 63.8555C42.4485 64.1764 42.1758 64.6238 42.0713 65.1221C41.245 69.063 38.1644 72.1436 34.2236 72.9697C33.7256 73.0744 33.2788 73.3471 32.958 73.7422C32.6373 74.1373 32.4619 74.6307 32.4619 75.1396C32.4619 75.6486 32.6373 76.142 32.958 76.5371C33.2788 76.9322 33.7256 77.2049 34.2236 77.3096C38.1643 78.1357 41.2452 81.2163 42.0713 85.1572C42.1757 85.6555 42.4486 86.1029 42.8438 86.4238C43.2389 86.7446 43.7323 86.9199 44.2412 86.9199C44.7503 86.9199 45.2445 86.7448 45.6396 86.4238C46.0348 86.1029 46.3077 85.6554 46.4121 85.1572C47.2384 81.2165 50.318 78.1358 54.2588 77.3096C54.757 77.205 55.2046 76.9323 55.5254 76.5371C55.8461 76.142 56.0215 75.6485 56.0215 75.1396C56.0215 74.6307 55.8461 74.1373 55.5254 73.7422C55.2046 73.347 54.757 73.0743 54.2588 72.9697C50.3182 72.1436 47.2383 69.063 46.4121 65.1221C46.3077 64.6239 46.0348 64.1764 45.6396 63.8555C45.2446 63.5347 44.7511 63.3595 44.2422 63.3594ZM71.4414 40.0684C70.9325 40.0684 70.4391 40.2438 70.0439 40.5645C69.6488 40.8853 69.376 41.3329 69.2715 41.8311C68.1548 47.1578 63.9908 51.321 58.6641 52.4375C58.1661 52.5421 57.7192 52.815 57.3984 53.21C57.0776 53.6051 56.9023 54.0994 56.9023 54.6084C56.9024 55.1173 57.0777 55.6108 57.3984 56.0059C57.7192 56.4009 58.1661 56.6737 58.6641 56.7783C63.9905 57.895 68.1538 62.0582 69.2705 67.3848C69.3749 67.8829 69.6479 68.3304 70.043 68.6514C70.4382 68.9723 70.9323 69.1475 71.4414 69.1475C71.9504 69.1474 72.4437 68.9722 72.8389 68.6514C73.2341 68.3304 73.5069 67.883 73.6113 67.3848C74.7282 62.0583 78.8914 57.8948 84.2178 56.7783C84.7161 56.6739 85.1634 56.401 85.4844 56.0059C85.8052 55.6107 85.9805 55.1174 85.9805 54.6084C85.9805 54.0994 85.8052 53.6061 85.4844 53.2109C85.1636 52.8159 84.7168 52.543 84.2188 52.4385C78.892 51.3218 74.7279 47.1577 73.6113 41.8311C73.5069 41.3331 73.2347 40.8863 72.8398 40.5654C72.4447 40.2445 71.9505 40.0684 71.4414 40.0684ZM39.0996 17.9199C38.5905 17.9199 38.0964 18.0951 37.7012 18.416C37.3061 18.7369 37.0332 19.1845 36.9287 19.6826C35.1753 28.0465 28.6383 34.5836 20.2744 36.3369C19.7763 36.4415 19.3286 36.7143 19.0078 37.1094C18.687 37.5046 18.5117 37.9988 18.5117 38.5078C18.5118 39.0167 18.6871 39.5102 19.0078 39.9053C19.3287 40.3005 19.7762 40.5732 20.2744 40.6777C28.6383 42.4313 35.1754 48.9689 36.9287 57.333C37.0332 57.8313 37.306 58.2787 37.7012 58.5996C38.0962 58.9204 38.5897 59.0956 39.0986 59.0957C39.6077 59.0957 40.1019 58.9205 40.4971 58.5996C40.8923 58.2787 41.1651 57.8313 41.2695 57.333C43.023 48.9688 49.5606 42.4308 57.9248 40.6777C58.423 40.5733 58.8705 40.3013 59.1914 39.9062C59.5124 39.5111 59.6875 39.0169 59.6875 38.5078C59.6875 37.9989 59.5122 37.5055 59.1914 37.1104C58.8705 36.7151 58.4231 36.4424 57.9248 36.3379C49.5607 34.5845 43.0228 28.0468 41.2695 19.6826C41.165 19.1844 40.8923 18.7369 40.4971 18.416C40.1019 18.0952 39.6086 17.9199 39.0996 17.9199Z" fill="#F28A71"/>
</svg>
