<svg width="105" height="105" viewBox="0 0 105 105" fill="none" xmlns="http://www.w3.org/2000/svg">
<path d="M52.2461 0C81.1007 0 104.492 23.3915 104.492 52.2461C104.492 81.1008 81.1008 104.492 52.2461 104.492C23.3914 104.492 0 81.1008 0 52.2461C0.000200557 23.3915 23.3915 0 52.2461 0ZM54.1807 24.3711C53.4538 22.8988 51.0381 22.8985 50.3115 24.3711L42.0107 41.1943L23.4473 43.8896C23.049 43.9472 22.674 44.1148 22.3662 44.374C22.0584 44.6332 21.8296 44.9738 21.7051 45.3564C21.5806 45.7391 21.5658 46.1493 21.6621 46.54C21.7585 46.9307 21.9619 47.2875 22.25 47.5684L35.6836 60.6582L32.5117 79.1504C32.4438 79.5466 32.4883 79.9547 32.6396 80.3271C32.7912 80.6996 33.0448 81.0234 33.3701 81.2598C33.6954 81.496 34.0814 81.636 34.4824 81.665C34.8833 81.6939 35.2848 81.6108 35.6406 81.4238L52.2461 72.6953L68.8535 81.4258C69.2093 81.6128 69.6108 81.6967 70.0117 81.668C70.4128 81.639 70.7986 81.498 71.124 81.2617C71.4495 81.0253 71.7028 80.7026 71.8545 80.3301C72.0061 79.9574 72.0504 79.5489 71.9824 79.1523L68.8105 60.6611L82.2412 47.5684C82.5279 47.2867 82.7307 46.9304 82.8262 46.54C82.9216 46.1498 82.9065 45.7405 82.7822 45.3584C82.6579 44.9764 82.4289 44.6363 82.1221 44.377C81.8153 44.1178 81.4422 43.9486 81.0449 43.8896L62.4814 41.1943L54.1807 24.3711Z" fill="#63CFCF"/>
</svg>
